<?xml version="1.0" encoding="UTF-8" standalone="no"?>
<!-- Created with Inkscape (http://www.inkscape.org/) -->

<svg
   xmlns:dc="http://purl.org/dc/elements/1.1/"
   xmlns:cc="http://creativecommons.org/ns#"
   xmlns:rdf="http://www.w3.org/1999/02/22-rdf-syntax-ns#"
   xmlns:svg="http://www.w3.org/2000/svg"
   xmlns="http://www.w3.org/2000/svg"
   xmlns:sodipodi="http://sodipodi.sourceforge.net/DTD/sodipodi-0.dtd"
   xmlns:inkscape="http://www.inkscape.org/namespaces/inkscape"
   width="210mm"
   height="297mm"
   viewBox="0 0 210 297"
   version="1.1"
   id="svg8"
   inkscape:version="0.92.1 r"
   sodipodi:docname="draft-1.svg">
  <defs
     id="defs2" />
  <sodipodi:namedview
     id="base"
     pagecolor="#ffffff"
     bordercolor="#666666"
     borderopacity="1.0"
     inkscape:pageopacity="0.0"
     inkscape:pageshadow="2"
     inkscape:zoom="1.4142136"
     inkscape:cx="339.54764"
     inkscape:cy="572.94876"
     inkscape:document-units="mm"
     inkscape:current-layer="layer1"
     showgrid="false"
     inkscape:snap-global="true"
     inkscape:window-width="1920"
     inkscape:window-height="1043"
     inkscape:window-x="0"
     inkscape:window-y="18"
     inkscape:window-maximized="0"
     inkscape:snap-bbox="true"
     inkscape:bbox-paths="false"
     inkscape:bbox-nodes="false"
     inkscape:snap-bbox-edge-midpoints="false"
     inkscape:snap-bbox-midpoints="true"
     inkscape:object-paths="false"
     inkscape:snap-intersection-paths="true"
     inkscape:snap-smooth-nodes="true"
     inkscape:snap-midpoints="false"
     inkscape:object-nodes="true"
     inkscape:snap-others="true"
     inkscape:snap-nodes="true"
     inkscape:measure-start="0,0"
     inkscape:measure-end="0,0"
     inkscape:snap-object-midpoints="true" />
  <metadata
     id="metadata5">
    <rdf:RDF>
      <cc:Work
         rdf:about="">
        <dc:format>image/svg+xml</dc:format>
        <dc:type
           rdf:resource="http://purl.org/dc/dcmitype/StillImage" />
        <dc:title />
      </cc:Work>
    </rdf:RDF>
  </metadata>
  <g
     inkscape:label="Layer 1"
     inkscape:groupmode="layer"
     id="layer1">
    <path
       style="opacity:1;fill:#727e55;fill-opacity:0.92990657;fill-rule:nonzero;stroke:none;stroke-width:0.69999999;stroke-linecap:butt;stroke-linejoin:miter;stroke-miterlimit:4;stroke-dasharray:none;stroke-dashoffset:0;stroke-opacity:1;paint-order:markers stroke fill"
       d="M 24.438935,12.569811 V 196.06972 h 19.49959 v -2.50011 h -4.00027 v -2.49958 h 4.00027 v -10.12497 h -4.00027 v -2.12493 h 4.00027 v -2.12545 h -4.00027 v -2.12494 h 4.00027 v -2.12493 h -4.00027 v -2.12494 h 4.00027 v -2.12493 h -4.00027 V 166.07 h 4.00027 V 12.569811 Z m 6.35,27.09498 a 1.4049998,1.4049998 0 0 1 1.40509,1.40509 1.4049998,1.4049998 0 0 1 -1.40509,1.40508 1.4049998,1.4049998 0 0 1 -1.40508,-1.40508 1.4049998,1.4049998 0 0 1 1.40508,-1.40509 z m 0,101.600009 a 1.4049999,1.4049999 0 0 1 1.40509,1.40508 1.4049999,1.4049999 0 0 1 -1.40509,1.40509 1.4049999,1.4049999 0 0 1 -1.40508,-1.40509 1.4049999,1.4049999 0 0 1 1.40508,-1.40508 z"
       id="rect10"
       inkscape:connector-curvature="0" />
    <path
       style="opacity:1;fill:#727e55;fill-opacity:0.92990657;fill-rule:nonzero;stroke:none;stroke-width:2.64566922;stroke-linecap:butt;stroke-linejoin:miter;stroke-miterlimit:4;stroke-dasharray:none;stroke-dashoffset:0;stroke-opacity:1;paint-order:markers stroke fill"
       d="M 167.7168 627.38867 L 167.7168 635.41992 L 182.83398 635.41992 L 182.83398 643.45117 L 167.7168 643.45117 L 167.7168 651.48242 L 182.83398 651.48242 L 182.83398 659.51367 L 167.7168 659.51367 L 167.7168 667.54492 L 182.83398 667.54492 L 182.83398 675.57617 L 167.7168 675.57617 L 167.7168 683.60938 L 182.83398 683.60938 L 182.83398 691.64062 L 167.7168 691.64062 L 167.7168 731.32422 L 182.83398 731.32422 L 182.83398 740.77344 L 558.89648 740.77344 L 558.89648 731.32422 L 574.01367 731.32422 L 574.01367 740.77344 L 574.01562 740.77344 L 574.01562 721.87695 L 558.89648 721.87695 L 558.89648 706.75977 L 574.01367 706.75977 L 574.01367 691.64062 L 574.01562 691.64062 L 574.01562 627.38867 L 167.7168 627.38867 z M 558.89648 635.41992 L 574.01367 635.41992 L 574.01367 643.45117 L 558.89648 643.45117 L 558.89648 635.41992 z M 558.89648 651.48242 L 574.01367 651.48242 L 574.01367 659.51367 L 558.89648 659.51367 L 558.89648 651.48242 z M 558.89648 667.54492 L 574.01367 667.54492 L 574.01367 675.57617 L 558.89648 675.57617 L 558.89648 667.54492 z M 201.375 676.52148 L 337.91602 676.52148 L 337.91602 691.63867 L 201.375 691.63867 L 201.375 676.52148 z M 372.8457 706.75977 L 410.64258 706.75977 L 410.64258 721.87695 L 372.8457 721.87695 L 372.8457 706.75977 z M 428.27734 706.75977 L 522.76562 706.75977 L 522.76562 721.87695 L 428.27734 721.87695 L 428.27734 706.75977 z "
       transform="scale(0.26458333)"
       id="rect10-6" />
    <path
       style="opacity:1;fill:#181755;fill-opacity:0.92990657;fill-rule:nonzero;stroke:none;stroke-width:0.69999999;stroke-linecap:butt;stroke-linejoin:miter;stroke-miterlimit:4;stroke-dasharray:none;stroke-dashoffset:0;stroke-opacity:1;paint-order:markers stroke fill"
       d="m 45.90927,236.85046 v -3.99975 h -0.96118 v -22.00022 h 0.96118 v -3.99974 H 55.9097 v 3.99974 h 0.96118 v 7.40008 h -6.42856 v 2.56523 h 6.42856 v 2.06912 h -6.42856 v 2.56573 h 6.42856 v 7.40006 H 55.9097 v 3.99975 z"
       id="rect915"
       inkscape:connector-curvature="0" />
    <path
       style="opacity:1;fill:#181755;fill-opacity:0.92990657;fill-rule:nonzero;stroke:none;stroke-width:0.69999993;stroke-linecap:butt;stroke-linejoin:miter;stroke-miterlimit:4;stroke-dasharray:none;stroke-dashoffset:0;stroke-opacity:1;paint-order:markers stroke fill"
       d="m 113.75891,235.57869 v -11.39982 h 6.42854 v -2.56522 h -6.42854 v -2.06963 h 6.42854 v -2.56522 h -6.42854 v -11.39983 h 18.26039 v 3.99976 h 11.26804 v -3.99976 h 3.00499 4.50928 v 6.45389 2.10892 h -6.40012 v 12.87412 h 6.40012 v 2.10892 6.45387 h -4.50928 -3.00499 v -3.99976 H 132.0193 v 3.99976 z"
       id="rect915-6"
       inkscape:connector-curvature="0" />
    <path
       inkscape:connector-curvature="0"
       style="opacity:1;fill:#727e55;fill-opacity:0.92990657;fill-rule:nonzero;stroke:none;stroke-width:0.69999999;stroke-linecap:butt;stroke-linejoin:miter;stroke-miterlimit:4;stroke-dasharray:none;stroke-dashoffset:0;stroke-opacity:1;paint-order:markers stroke fill"
       d="M 171.37404,12.496397 V 195.99631 h -19.49959 v -2.50011 h 4.00027 v -2.49959 h -4.00027 v -10.12496 h 4.00027 v -2.12493 h -4.00027 v -2.12546 h 4.00027 v -2.12493 h -4.00027 v -2.12493 h 4.00027 v -2.12494 h -4.00027 v -2.12493 h 4.00027 v -2.12494 h -4.00027 V 12.496397 Z m -6.35,27.09497 a 1.4049999,1.4049999 0 0 0 -1.40509,1.40509 1.4049999,1.4049999 0 0 0 1.40509,1.40508 1.4049999,1.4049999 0 0 0 1.40508,-1.40508 1.4049999,1.4049999 0 0 0 -1.40508,-1.40509 z m 0,101.600013 a 1.4049999,1.4049999 0 0 0 -1.40509,1.40509 1.4049999,1.4049999 0 0 0 1.40509,1.40508 1.4049999,1.4049999 0 0 0 1.40508,-1.40508 1.4049999,1.4049999 0 0 0 -1.40508,-1.40509 z"
       id="rect10-67" />
    <rect
       style="opacity:1;fill:#441650;fill-opacity:0.92990657;fill-rule:nonzero;stroke:none;stroke-width:0.69999999;stroke-linecap:butt;stroke-linejoin:miter;stroke-miterlimit:4;stroke-dasharray:none;stroke-dashoffset:0;stroke-opacity:1;paint-order:markers stroke fill"
       id="rect4491"
       width="4.6073599"
       height="3.9997537"
       x="147.26709"
       y="186.99686" />
  </g>
</svg>
