<?xml version="1.0" encoding="UTF-8" standalone="no"?>
<!-- Created with Inkscape (http://www.inkscape.org/) -->

<svg
   xmlns:dc="http://purl.org/dc/elements/1.1/"
   xmlns:cc="http://creativecommons.org/ns#"
   xmlns:rdf="http://www.w3.org/1999/02/22-rdf-syntax-ns#"
   xmlns:svg="http://www.w3.org/2000/svg"
   xmlns="http://www.w3.org/2000/svg"
   xmlns:sodipodi="http://sodipodi.sourceforge.net/DTD/sodipodi-0.dtd"
   xmlns:inkscape="http://www.inkscape.org/namespaces/inkscape"
   width="146.99982mm"
   height="46.202347mm"
   viewBox="0 0 146.99982 46.202347"
   version="1.1"
   id="svg8"
   inkscape:version="0.92.1 r"
   sodipodi:docname="draft-2.svg">
  <defs
     id="defs2" />
  <sodipodi:namedview
     id="base"
     pagecolor="#ffffff"
     bordercolor="#666666"
     borderopacity="1.0"
     inkscape:pageopacity="0.0"
     inkscape:pageshadow="2"
     inkscape:zoom="1"
     inkscape:cx="336.81045"
     inkscape:cy="14.967222"
     inkscape:document-units="mm"
     inkscape:current-layer="layer1"
     showgrid="false"
     inkscape:snap-bbox="true"
     inkscape:bbox-paths="true"
     inkscape:snap-bbox-edge-midpoints="true"
     inkscape:bbox-nodes="true"
     inkscape:snap-bbox-midpoints="true"
     inkscape:object-paths="true"
     inkscape:snap-intersection-paths="true"
     inkscape:snap-smooth-nodes="true"
     inkscape:snap-midpoints="true"
     inkscape:snap-object-midpoints="true"
     inkscape:snap-center="true"
     inkscape:snap-text-baseline="true"
     inkscape:snap-page="true"
     inkscape:snap-global="true"
     fit-margin-top="0"
     fit-margin-left="0"
     fit-margin-right="0"
     fit-margin-bottom="0"
     inkscape:window-width="1366"
     inkscape:window-height="731"
     inkscape:window-x="0"
     inkscape:window-y="18"
     inkscape:window-maximized="0"
     inkscape:measure-start="613.769,-35.3553"
     inkscape:measure-end="-57.2756,77.7817" />
  <metadata
     id="metadata5">
    <rdf:RDF>
      <cc:Work
         rdf:about="">
        <dc:format>image/svg+xml</dc:format>
        <dc:type
           rdf:resource="http://purl.org/dc/dcmitype/StillImage" />
        <dc:title />
      </cc:Work>
    </rdf:RDF>
  </metadata>
  <g
     inkscape:label="Layer 1"
     inkscape:groupmode="layer"
     id="layer1"
     transform="translate(-47.943842,-94.933221)">
    <rect
       style="opacity:1;fill:#0000ff;fill-opacity:0.92990657;fill-rule:nonzero;stroke:none;stroke-width:0.69999999;stroke-linecap:butt;stroke-linejoin:miter;stroke-miterlimit:4;stroke-dasharray:none;stroke-dashoffset:0;stroke-opacity:1;paint-order:markers stroke fill"
       id="rect3711"
       width="144.18636"
       height="25"
       x="50.757301"
       y="91.933159" />
    <path
       style="opacity:1;fill:#ffff00;fill-opacity:0.92990657;fill-rule:nonzero;stroke:none;stroke-width:0.70000005;stroke-linecap:butt;stroke-linejoin:miter;stroke-miterlimit:4;stroke-dasharray:none;stroke-dashoffset:0;stroke-opacity:1;paint-order:markers stroke fill"
       d="M 50.757309,94.933096 V 115.4331 H 194.94365 V 94.933096 Z"
       id="path3693"
       inkscape:connector-curvature="0" />
    <g
       aria-label="â†"
       style="font-style:normal;font-variant:normal;font-weight:normal;font-stretch:normal;font-size:5.64444447px;line-height:6.3499999px;font-family:'Fira Sans';-inkscape-font-specification:'Fira Sans';letter-spacing:0px;word-spacing:0px;fill:#ff0000;fill-opacity:1;stroke:none;stroke-width:0.09017459px;stroke-linecap:butt;stroke-linejoin:miter;stroke-opacity:1"
       id="text4571"
       transform="matrix(2.9341228,0,0,2.9341228,-168.03965,-117.80523)">
      <path
         d="m 76.122025,73.316566 -1.552222,1.738488 1.552222,1.738489 0.378178,-0.321733 -0.762,-0.835378 c -0.124178,-0.135466 -0.248355,-0.259644 -0.395111,-0.3556 h 6.061692 v -0.451555 h -6.061692 c 0.169333,-0.107245 0.231422,-0.174978 0.395111,-0.3556 l 0.762,-0.835378 z"
         style="font-size:5.64444447px;fill:#ff0000;stroke-width:0.09017459px"
         id="path4573"
         inkscape:connector-curvature="0"
         sodipodi:nodetypes="cccccccccccc" />
    </g>
    <g
       id="g3709"
       transform="translate(1.0135002,1.6998825)">
      <g
         id="g3700">
        <path
           style="opacity:1;fill:#d40000;fill-opacity:0.92990657;fill-rule:nonzero;stroke:none;stroke-width:0.70000005;stroke-linecap:butt;stroke-linejoin:miter;stroke-miterlimit:4;stroke-dasharray:none;stroke-dashoffset:0;stroke-opacity:1;paint-order:markers stroke fill"
           d="m 78.243801,107.08339 a 1.7999999,1.7999999 0 0 1 1.799891,1.79988 1.7999999,1.7999999 0 0 1 -1.799891,1.7999 1.7999999,1.7999999 0 0 1 -1.799889,-1.7999 1.7999999,1.7999999 0 0 1 1.799889,-1.79988 z"
           id="path3691"
           inkscape:connector-curvature="0" />
        <path
           style="opacity:1;fill:#d40000;fill-opacity:0.92990657;fill-rule:nonzero;stroke:none;stroke-width:0.70000005;stroke-linecap:butt;stroke-linejoin:miter;stroke-miterlimit:4;stroke-dasharray:none;stroke-dashoffset:0;stroke-opacity:1;paint-order:markers stroke fill"
           d="m 179.8438,107.08339 a 1.7999999,1.7999999 0 0 1 1.79989,1.79988 1.7999999,1.7999999 0 0 1 -1.79989,1.7999 1.7999999,1.7999999 0 0 1 -1.79989,-1.7999 1.7999999,1.7999999 0 0 1 1.79989,-1.79988 z"
           id="rect4576"
           inkscape:connector-curvature="0" />
        <rect
           style="opacity:1;fill:#a02c2c;fill-opacity:0.92990657;fill-rule:nonzero;stroke:none;stroke-width:0.69999999;stroke-linecap:butt;stroke-linejoin:miter;stroke-miterlimit:4;stroke-dasharray:none;stroke-dashoffset:0;stroke-opacity:1;paint-order:markers stroke fill"
           id="rect3695"
           width="101.6"
           height="1.5902536"
           x="-179.8438"
           y="108.08815"
           transform="scale(-1,1)" />
      </g>
      <rect
         y="107.69266"
         x="49.743801"
         height="2.3812499"
         width="28.5"
         id="rect3702"
         style="opacity:1;fill:#0000ff;fill-opacity:0.92990657;fill-rule:nonzero;stroke:none;stroke-width:0.69999999;stroke-linecap:butt;stroke-linejoin:miter;stroke-miterlimit:4;stroke-dasharray:none;stroke-dashoffset:0;stroke-opacity:1;paint-order:markers stroke fill" />
    </g>
    <rect
       style="opacity:1;fill:#aa0000;fill-opacity:0.92990657;fill-rule:nonzero;stroke:none;stroke-width:0.69999999;stroke-linecap:butt;stroke-linejoin:miter;stroke-miterlimit:4;stroke-dasharray:none;stroke-dashoffset:0;stroke-opacity:1;paint-order:markers stroke fill"
       id="rect3713"
       width="0.37417734"
       height="6.3499999"
       x="79.070213"
       y="-116.93316"
       transform="scale(1,-1)" />
    <rect
       style="opacity:1;fill:#800080;fill-opacity:0.92990657;fill-rule:nonzero;stroke:none;stroke-width:0.69999993;stroke-linecap:butt;stroke-linejoin:miter;stroke-miterlimit:4;stroke-dasharray:none;stroke-dashoffset:0;stroke-opacity:1;paint-order:markers stroke fill"
       id="rect3773"
       width="47.707607"
       height="8.4189901"
       x="50.757309"
       y="105.1831" />
    <path
       style="opacity:1;fill:#ffff00;fill-opacity:0.92990657;fill-rule:nonzero;stroke:none;stroke-width:0.70000005;stroke-linecap:butt;stroke-linejoin:miter;stroke-miterlimit:4;stroke-dasharray:none;stroke-dashoffset:0;stroke-opacity:1;paint-order:markers stroke fill"
       d="m 47.943842,120.63553 v 10.25002 h 20.05459 v 8.41861 h -20.05459 v 1.83141 H 189.86128 v -20.50004 z m 26.230957,13.8498 a 1.7999998,1.7999998 0 0 1 1.79989,1.79989 1.7999998,1.7999998 0 0 1 -1.79989,1.79989 1.7999998,1.7999998 0 0 1 -1.79989,-1.79989 1.7999998,1.7999998 0 0 1 1.79989,-1.79989 z m 101.600001,0 a 1.7999999,1.7999999 0 0 1 1.79989,1.79989 1.7999999,1.7999999 0 0 1 -1.79989,1.79989 1.7999999,1.7999999 0 0 1 -1.79989,-1.79989 1.7999999,1.7999999 0 0 1 1.79989,-1.79989 z"
       id="path3693-6"
       inkscape:connector-curvature="0" />
    <path
       inkscape:connector-curvature="0"
       style="opacity:1;fill:#ffff00;fill-opacity:0.92990657;fill-rule:nonzero;stroke:none;stroke-width:0.70000005;stroke-linecap:butt;stroke-linejoin:miter;stroke-miterlimit:4;stroke-dasharray:none;stroke-dashoffset:0;stroke-opacity:1;paint-order:markers stroke fill"
       d="m 192.98589,147.28971 v 10.25002 H 172.9313 v 8.41861 h 20.05459 v 1.83141 H 51.068456 v -20.50004 z m -26.23096,13.8498 a 1.7999999,1.7999999 0 0 0 -1.79989,1.79989 1.7999999,1.7999999 0 0 0 1.79989,1.79989 1.7999999,1.7999999 0 0 0 1.79989,-1.79989 1.7999999,1.7999999 0 0 0 -1.79989,-1.79989 z m -101.599994,0 a 1.7999999,1.7999999 0 0 0 -1.79989,1.79989 1.7999999,1.7999999 0 0 0 1.79989,1.79989 1.7999999,1.7999999 0 0 0 1.79989,-1.79989 1.7999999,1.7999999 0 0 0 -1.79989,-1.79989 z"
       id="path3693-6-0" />
  </g>
</svg>
