<?xml version="1.0" encoding="UTF-8" standalone="no"?>
<!-- Created with Inkscape (http://www.inkscape.org/) -->

<svg
   xmlns:dc="http://purl.org/dc/elements/1.1/"
   xmlns:cc="http://creativecommons.org/ns#"
   xmlns:rdf="http://www.w3.org/1999/02/22-rdf-syntax-ns#"
   xmlns:svg="http://www.w3.org/2000/svg"
   xmlns="http://www.w3.org/2000/svg"
   xmlns:xlink="http://www.w3.org/1999/xlink"
   xmlns:sodipodi="http://sodipodi.sourceforge.net/DTD/sodipodi-0.dtd"
   xmlns:inkscape="http://www.inkscape.org/namespaces/inkscape"
   width="210mm"
   height="297mm"
   viewBox="0 0 210 297"
   version="1.1"
   id="svg3783"
   inkscape:version="0.92.0 r"
   sodipodi:docname="ein-euro.svg">
  <defs
     id="defs3777" />
  <sodipodi:namedview
     id="base"
     pagecolor="#ffffff"
     bordercolor="#666666"
     borderopacity="1.0"
     inkscape:pageopacity="0.0"
     inkscape:pageshadow="2"
     inkscape:zoom="9.683473"
     inkscape:cx="47.094092"
     inkscape:cy="44.095719"
     inkscape:document-units="mm"
     inkscape:current-layer="layer1"
     showgrid="false"
     inkscape:window-width="1916"
     inkscape:window-height="1041"
     inkscape:window-x="0"
     inkscape:window-y="18"
     inkscape:window-maximized="0" />
  <metadata
     id="metadata3780">
    <rdf:RDF>
      <cc:Work
         rdf:about="">
        <dc:format>image/svg+xml</dc:format>
        <dc:type
           rdf:resource="http://purl.org/dc/dcmitype/StillImage" />
        <dc:title></dc:title>
      </cc:Work>
    </rdf:RDF>
  </metadata>
  <g
     inkscape:label="Layer 1"
     inkscape:groupmode="layer"
     id="layer1">
    <circle
       style="fill:none;fill-opacity:1;stroke:#000000;stroke-width:0.134;stroke-miterlimit:4;stroke-dasharray:none;stroke-opacity:1"
       id="path3785"
       cx="11.667001"
       cy="285.33301"
       r="11.6" />
    <text
       xml:space="preserve"
       style="font-style:normal;font-weight:normal;font-size:1.32291663px;line-height:6.61458302px;font-family:Sans;letter-spacing:0px;word-spacing:0px;fill:#000000;fill-opacity:1;stroke:none;stroke-width:0.26458332px;stroke-linecap:butt;stroke-linejoin:miter;stroke-opacity:1"
       x="2.9498286"
       y="293.12292"
       id="text4598"><tspan
         sodipodi:role="line"
         id="tspan4596"
         x="2.9498286"
         y="293.12292"
         style="font-style:normal;font-variant:normal;font-weight:normal;font-stretch:normal;font-size:21.16666603px;font-family:'Comic Sans MS';-inkscape-font-specification:'Comic Sans MS';stroke-width:0.26458332px">1</tspan></text>
    <text
       xml:space="preserve"
       style="font-style:normal;font-weight:normal;font-size:1.32291663px;line-height:6.61458302px;font-family:Sans;letter-spacing:0px;word-spacing:0px;fill:#000000;fill-opacity:1;stroke:none;stroke-width:0.26458332px;stroke-linecap:butt;stroke-linejoin:miter;stroke-opacity:1"
       x="10.152503"
       y="288.03406"
       id="text4602"><tspan
         sodipodi:role="line"
         id="tspan4600"
         x="10.152503"
         y="288.03406"
         style="font-style:normal;font-variant:normal;font-weight:normal;font-stretch:normal;font-size:3.52777767px;font-family:'Comic Sans MS';-inkscape-font-specification:'Comic Sans MS';stroke-width:0.26458332px">Münze</tspan></text>
    <text
       xml:space="preserve"
       style="font-style:normal;font-weight:normal;font-size:1.32291663px;line-height:6.61458302px;font-family:Sans;letter-spacing:0px;word-spacing:0px;fill:#000000;fill-opacity:1;stroke:none;stroke-width:0.26458332px;stroke-linecap:butt;stroke-linejoin:miter;stroke-opacity:1"
       id="text4640"><textPath
         xlink:href="#path4676"
         id="textPath4678"><tspan
   style="font-style:normal;font-variant:normal;font-weight:normal;font-stretch:normal;line-height:6.61000013px;font-family:'Comic Sans MS';-inkscape-font-specification:'Comic Sans MS';stroke-width:0.26458332px;font-size:1.41111111px"
   id="tspan4638">Was ist das für</tspan></textPath></text>
    <path
       style="fill:none;fill-opacity:1;stroke:none;stroke-width:0.11485386;stroke-miterlimit:4;stroke-dasharray:none;stroke-opacity:1"
       d="m 1.6574268,285.39999 c 1.9e-6,-5.49113 4.451443,-9.94257 9.9425732,-9.94257 5.491131,0 9.942572,4.45144 9.942574,9.94257"
       id="path4676" />
    <path
       style="fill:none;fill-opacity:1;stroke:none;stroke-width:0.11485386;stroke-miterlimit:4;stroke-dasharray:none;stroke-opacity:1"
       d="m 21.542574,285.39999 c 4e-6,5.49113 -4.45144,9.94258 -9.942574,9.94258 -5.4911341,0 -9.9425768,-4.45145 -9.9425732,-9.94258"
       id="path3785-0" />
    <text
       xml:space="preserve"
       style="font-style:normal;font-weight:normal;font-size:1.32291663px;line-height:6.61458302px;font-family:Sans;letter-spacing:0px;word-spacing:0px;fill:#000000;fill-opacity:1;stroke:none;stroke-width:0.26458332px;stroke-linecap:butt;stroke-linejoin:miter;stroke-opacity:1"
       id="text4683"><textPath
         xlink:href="#path3785-0"
         id="textPath4685"><tspan
   style="font-style:normal;font-variant:normal;font-weight:normal;font-stretch:normal;font-size:1.41111112px;font-family:'Comic Sans MS';-inkscape-font-specification:'Comic Sans MS';stroke-width:0.26458332px"
   id="tspan4681">so vong Bezahlen her?</tspan></textPath></text>
    <g
       transform="matrix(0.12405275,0,0,0.12405275,-30.707488,214.74073)"
       id="g4749">
      <path
         inkscape:connector-curvature="0"
         id="path598"
         style="fill:#000000;fill-opacity:1;fill-rule:nonzero;stroke:none"
         d="m 365.11429,516.76683 c -3.6475,2.985 -6.3,8.125 -6.3,8.125 l -2.81875,7.7925 -12.60125,3.6475 c 0,0 -10.0725,8.55 -3.81375,10.115 11.275,2.81875 26.1975,0.82875 26.1975,0.82875 l 15.42,-1.99 c 0,0 -3.6475,-2.155 14.09375,1.4925 5.555,1.1425 14.4975,-0.315 16.58,-3.6475 0.82875,-1.32625 1.82375,-2.32125 -4.8075,-4.4775 -6.6325,-2.155 -11.44125,-0.33125 -11.44125,-0.33125 l 0.4975,-8.62125 -6.6325,-6.30125 -12.7675,-5.96875 -11.60625,-0.66375" />
      <path
         inkscape:connector-curvature="0"
         id="path600"
         style="fill:#ffffff;fill-opacity:1;fill-rule:nonzero;stroke:none"
         d="m 365.61179,519.08808 7.13,0.4975 11.60625,3.81375 -11.60625,-2.81875 -7.13,0.4975 6.6325,0.66375 9.12,2.98375 -9.6175,-1.82375 -7.7925,0.33125 7.95875,1.3275 8.29,1.98875 -8.95375,-0.82875 -9.285,-0.16625 9.12,1.3275 8.455,2.98375 -9.285,-1.82375 -9.9475,0.16625 9.45,1.16 7.79375,3.15125 -8.125,-1.99 -10.705,1.02 0.0937,0.97 10.61125,0.165 12.9325,4.145 9.12,4.145 c 0,0 0.585,2.17875 8.62125,2.4875 8.6225,0.33125 10.28,-0.6625 10.28,-0.6625 0,0 -0.6625,-1.3275 -4.31,-2.65375 -3.64875,-1.32625 -8.2825,-1.63375 -10.28,-0.995 -4.145,1.32625 -6.4675,0.4975 -6.4675,0.4975 l 3.81375,-1.32625 c 0,0 -4.31,-0.33125 -6.46625,-1.6575 5.47125,0.6625 7.29625,-0.66375 7.29625,-0.66375 l 0.99375,-6.3 -6.13375,-4.6425 -13.7625,-6.4675 -9.45125,0.4975" />
      <path
         inkscape:connector-curvature="0"
         id="path602"
         style="fill:#ffffff;fill-opacity:1;fill-rule:nonzero;stroke:none"
         d="m 358.15054,535.17183 c -6.63125,-0.0987 -11.275,2.155 -11.275,2.155 l -6.63125,3.81375 c 0,0 -2.65375,2.6525 -0.995,3.6475 1.6575,0.995 13.09875,2.15625 13.09875,2.15625 l 24.3725,-2.32125 7.95875,-0.995 10.6125,2.48625 11.10875,-0.6625 2.32125,-1.65875 -9.7825,1.65875 -10.7775,-3.81375 -8.29,0.995 -9.94875,-0.33125 c 0,0 -12.46,-1.26125 -13.9275,-3.31625 -0.82875,-1.16125 2.6525,-2.65375 2.6525,-2.65375 0,0 -3.9375,2.57375 0.995,2.985 5.96875,0.4975 10.94375,1.99 10.94375,1.99 l 13.43,-0.83 -3.15,-1.32625 -6.6325,0.83 -6.46625,-0.4975 -6.135,-1.3275 c 0,0 10.445,1.16125 13.26375,-0.33125 l -12.26875,-1.16 8.12375,-0.4975 c 0,0 -1.4925,-0.82875 -12.60125,-0.995" />
    </g>
  </g>
</svg>
