<?xml version="1.0" encoding="UTF-8" standalone="no"?>
<svg
   xmlns:dc="http://purl.org/dc/elements/1.1/"
   xmlns:cc="http://creativecommons.org/ns#"
   xmlns:rdf="http://www.w3.org/1999/02/22-rdf-syntax-ns#"
   xmlns:svg="http://www.w3.org/2000/svg"
   xmlns="http://www.w3.org/2000/svg"
   xmlns:sodipodi="http://sodipodi.sourceforge.net/DTD/sodipodi-0.dtd"
   xmlns:inkscape="http://www.inkscape.org/namespaces/inkscape"
   width="295"
   height="596"
   viewBox="0 -596 295 596"
   version="1.1"
   id="svg760"
   sodipodi:docname="kleinteilregal.svg"
   inkscape:version="0.92.1 r">
  <metadata
     id="metadata766">
    <rdf:RDF>
      <cc:Work
         rdf:about="">
        <dc:format>image/svg+xml</dc:format>
        <dc:type
           rdf:resource="http://purl.org/dc/dcmitype/StillImage" />
        <dc:title>OpenSCAD Model</dc:title>
      </cc:Work>
    </rdf:RDF>
  </metadata>
  <defs
     id="defs764" />
  <sodipodi:namedview
     pagecolor="#ffffff"
     bordercolor="#666666"
     borderopacity="1"
     objecttolerance="10"
     gridtolerance="10"
     guidetolerance="10"
     inkscape:pageopacity="0"
     inkscape:pageshadow="2"
     inkscape:window-width="1916"
     inkscape:window-height="1041"
     id="namedview762"
     showgrid="false"
     inkscape:zoom="0.37809742"
     inkscape:cx="558.17519"
     inkscape:cy="1125.1213"
     inkscape:window-x="0"
     inkscape:window-y="18"
     inkscape:window-maximized="0"
     inkscape:current-layer="svg760" />
  <title
     id="title756">OpenSCAD Model</title>
  <path
     d="M 1115.6555,-2249.5478 H 0.69488189 v 37.7953 H 1115.6555 Z m 0,37.7991 H 0.69488189 v 37.7952 H 1115.6555 Z m 0,37.799 H 0.69488189 v 37.7953 H 1115.6555 Z M 56.439134,-1934.7812 h 55.755586 v 15.9534 h 55.74048 v -15.9534 h 55.75559 v 15.9534 h 55.74047 v -15.9534 h 55.75559 v 15.9534 h 55.74047 v -15.9534 h 55.75559 v 15.9534 h 55.74048 v -15.9534 h 55.75559 v 15.9534 h 55.74047 v -15.9534 h 55.75559 v 15.9534 h 55.74047 v -15.9534 h 55.75559 v 15.9534 h 55.74047 v -15.9534 h 55.7556 v 15.9534 h 55.74047 v -15.9534 h 55.75556 v 15.9534 h 55.7405 v -15.9534 h 55.7518 v -201.3694 h -97.4324 v 50.3471 h -15.9572 v -50.3471 H 451.29394 v 50.3471 h -15.95717 v -50.3471 H 35.54583 v 50.3471 H 19.588702 v -50.3471 H 0.69488189 v 217.3228 H 56.439134 Z m 188.998676,-119.5238 -0.91691,-0.136 -0.89953,-0.2268 -0.87307,-0.3137 -0.8383,-0.3968 -0.79521,-0.4763 -0.74495,-0.5518 -0.68712,-0.6236 -0.62248,-0.6841 -0.55257,-0.7446 -0.4766,-0.7974 -0.39647,-0.8391 -0.31257,-0.8731 -0.22526,-0.8995 -0.13606,-0.9146 -0.0454,-0.926 0.0454,-0.926 0.13606,-0.9184 0.22526,-0.8996 0.31257,-0.873 0.39647,-0.8391 0.4766,-0.7937 0.55257,-0.7446 0.62248,-0.6878 0.68712,-0.6237 0.74495,-0.5518 0.79521,-0.4762 0.8383,-0.3968 0.87307,-0.3137 0.89953,-0.223 0.91691,-0.1361 0.92636,-0.045 0.92599,0.045 0.91729,0.1361 0.89953,0.223 0.87307,0.3137 0.8383,0.3968 0.79521,0.4762 0.74494,0.5518 0.68712,0.6237 0.62249,0.6878 0.55257,0.7446 0.4766,0.7937 0.39647,0.8391 0.31219,0.873 0.22563,0.8996 0.13607,0.9184 0.0454,0.926 -0.0454,0.926 -0.13607,0.9146 -0.22563,0.8995 -0.31219,0.8731 -0.39647,0.8391 -0.4766,0.7974 -0.55257,0.7446 -0.62249,0.6841 -0.68712,0.6236 -0.74494,0.5518 -0.79521,0.4763 -0.8383,0.3968 -0.87307,0.3137 -0.89953,0.2268 -0.91729,0.136 -0.92599,0.045 z m 302.36258,0 -0.91842,-0.136 -0.89953,-0.2268 -0.87307,-0.3137 -0.83528,-0.3968 -0.79748,-0.4763 -0.74456,-0.5518 -0.68788,-0.6236 -0.62362,-0.6841 -0.55181,-0.7446 -0.47622,-0.7974 -0.39685,-0.8391 -0.30992,-0.8731 -0.22677,-0.8995 -0.13607,-0.9146 -0.0453,-0.926 0.0453,-0.926 0.13607,-0.9184 0.22677,-0.8996 0.30992,-0.873 0.39685,-0.8391 0.47622,-0.7937 0.55181,-0.7446 0.62362,-0.6878 0.68788,-0.6237 0.74456,-0.5518 0.79748,-0.4762 0.83528,-0.3968 0.87307,-0.3137 0.89953,-0.223 0.91842,-0.1361 0.92599,-0.045 0.92598,0.045 0.91843,0.1361 0.89952,0.223 0.87308,0.3137 0.83527,0.3968 0.79748,0.4762 0.74457,0.5518 0.68787,0.6237 0.62362,0.6878 0.55182,0.7446 0.47622,0.7937 0.39685,0.8391 0.30992,0.873 0.22677,0.8996 0.13606,0.9184 0.0454,0.926 -0.0454,0.926 -0.13606,0.9146 -0.22677,0.8995 -0.30992,0.8731 -0.39685,0.8391 -0.47622,0.7974 -0.55182,0.7446 -0.62362,0.6841 -0.68787,0.6236 -0.74457,0.5518 -0.79748,0.4763 -0.83527,0.3968 -0.87308,0.3137 -0.89952,0.2268 -0.91843,0.136 -0.92598,0.045 z m -75.59055,0 -0.91842,-0.136 -0.89953,-0.2268 -0.87307,-0.3137 -0.83528,-0.3968 -0.79748,-0.4763 -0.74456,-0.5518 -0.68788,-0.6236 -0.62362,-0.6841 -0.55181,-0.7446 -0.47622,-0.7974 -0.39685,-0.8391 -0.30992,-0.8731 -0.22677,-0.8995 -0.13607,-0.9146 -0.0454,-0.926 0.0454,-0.926 0.13607,-0.9184 0.22677,-0.8996 0.30992,-0.873 0.39685,-0.8391 0.47622,-0.7937 0.55181,-0.7446 0.62362,-0.6878 0.68788,-0.6237 0.74456,-0.5518 0.79748,-0.4762 0.83528,-0.3968 0.87307,-0.3137 0.89953,-0.223 0.91842,-0.1361 0.92599,-0.045 0.92598,0.045 0.91843,0.1361 0.89952,0.223 0.87307,0.3137 0.83528,0.3968 0.79748,0.4762 0.74457,0.5518 0.68787,0.6237 0.62362,0.6878 0.55181,0.7446 0.47623,0.7937 0.39685,0.8391 0.30992,0.873 0.22677,0.8996 0.13606,0.9184 0.0454,0.926 -0.0454,0.926 -0.13606,0.9146 -0.22677,0.8995 -0.30992,0.8731 -0.39685,0.8391 -0.47623,0.7974 -0.55181,0.7446 -0.62362,0.6841 -0.68787,0.6236 -0.74457,0.5518 -0.79748,0.4763 -0.83528,0.3968 -0.87307,0.3137 -0.89952,0.2268 -0.91843,0.136 -0.92598,0.045 z m -302.36258,0 -0.91691,-0.136 -0.89953,-0.2268 -0.87307,-0.3137 -0.8383,-0.3968 -0.79521,-0.4763 -0.74495,-0.5518 -0.68712,-0.6236 -0.62248,-0.6841 -0.55257,-0.7446 -0.4766,-0.7974 -0.39647,-0.8391 -0.31257,-0.8731 -0.22526,-0.8995 -0.13606,-0.9146 -0.0454,-0.926 0.0454,-0.926 0.13606,-0.9184 0.22526,-0.8996 0.31257,-0.873 0.39647,-0.8391 0.4766,-0.7937 0.55257,-0.7446 0.62248,-0.6878 0.68712,-0.6237 0.74495,-0.5518 0.79521,-0.4762 0.8383,-0.3968 0.87307,-0.3137 0.89953,-0.223 0.91691,-0.1361 0.92636,-0.045 0.92599,0.045 0.91729,0.1361 0.89953,0.223 0.87307,0.3137 0.8383,0.3968 0.79521,0.4762 0.74494,0.5518 0.68712,0.6237 0.62249,0.6878 0.55257,0.7446 0.47659,0.7937 0.39648,0.8391 0.31219,0.873 0.22563,0.8996 0.13607,0.9184 0.0454,0.926 -0.0454,0.926 -0.13607,0.9146 -0.22563,0.8995 -0.31219,0.8731 -0.39648,0.8391 -0.47659,0.7974 -0.55257,0.7446 -0.62249,0.6841 -0.68712,0.6236 -0.74494,0.5518 -0.79521,0.4763 -0.8383,0.3968 -0.87307,0.3137 -0.89953,0.2268 -0.91729,0.136 -0.92599,0.045 z m -75.590551,0 -0.916914,-0.136 -0.899527,-0.2268 -0.873071,-0.3137 -0.838299,-0.3968 -0.795213,-0.4763 -0.744945,-0.5518 -0.687118,-0.6236 -0.622488,-0.6841 -0.552567,-0.7446 -0.476598,-0.7974 -0.396473,-0.8391 -0.312567,-0.8731 -0.22526,-0.8995 -0.136063,-0.9146 -0.04535,-0.926 0.04535,-0.926 0.136063,-0.9184 0.22526,-0.8996 0.312567,-0.873 0.396473,-0.8391 0.476598,-0.7937 0.552567,-0.7446 0.622488,-0.6878 0.687118,-0.6237 0.744945,-0.5518 0.795213,-0.4762 0.838299,-0.3968 0.873071,-0.3137 0.899527,-0.223 0.916914,-0.1361 0.926362,-0.045 0.925984,0.045 0.917291,0.1361 0.899528,0.223 0.873071,0.3137 0.838299,0.3968 0.795216,0.4762 0.74494,0.5518 0.68712,0.6237 0.62249,0.6878 0.55256,0.7446 0.4766,0.7937 0.39648,0.8391 0.31218,0.873 0.22564,0.8996 0.13607,0.9184 0.0453,0.926 -0.0453,0.926 -0.13607,0.9146 -0.22564,0.8995 -0.31218,0.8731 -0.39648,0.8391 -0.4766,0.7974 -0.55256,0.7446 -0.62249,0.6841 -0.68712,0.6236 -0.74494,0.5518 -0.795216,0.4763 -0.838299,0.3968 -0.873071,0.3137 -0.899528,0.2268 -0.917291,0.136 -0.925984,0.045 z m 226.771651,0 -0.91691,-0.136 -0.89953,-0.2268 -0.87307,-0.3137 -0.8383,-0.3968 -0.79521,-0.4763 -0.74495,-0.5518 -0.68711,-0.6236 -0.62249,-0.6841 -0.55257,-0.7446 -0.4766,-0.7974 -0.39647,-0.8391 -0.31257,-0.8731 -0.22526,-0.8995 -0.13606,-0.9146 -0.0454,-0.926 0.0454,-0.926 0.13606,-0.9184 0.22526,-0.8996 0.31257,-0.873 0.39647,-0.8391 0.4766,-0.7937 0.55257,-0.7446 0.62249,-0.6878 0.68711,-0.6237 0.74495,-0.5518 0.79521,-0.4762 0.8383,-0.3968 0.87307,-0.3137 0.89953,-0.223 0.91691,-0.1361 0.92636,-0.045 0.92599,0.045 0.91729,0.1361 0.89953,0.223 0.87307,0.3137 0.8383,0.3968 0.79521,0.4762 0.74495,0.5518 0.68711,0.6237 0.62249,0.6878 0.55257,0.7446 0.4766,0.7937 0.39647,0.8391 0.31219,0.873 0.22564,0.8996 0.13606,0.9184 0.0454,0.926 -0.0454,0.926 -0.13606,0.9146 -0.22564,0.8995 -0.31219,0.8731 -0.39647,0.8391 -0.4766,0.7974 -0.55257,0.7446 -0.62249,0.6841 -0.68711,0.6236 -0.74495,0.5518 -0.79521,0.4763 -0.8383,0.3968 -0.87307,0.3137 -0.89953,0.2268 -0.91729,0.136 -0.92599,0.045 z m 75.59093,0 -0.91842,-0.136 -0.89953,-0.2268 -0.87307,-0.3137 -0.83528,-0.3968 -0.79748,-0.4763 -0.74457,-0.5518 -0.68787,-0.6236 -0.62362,-0.6841 -0.55181,-0.7446 -0.47622,-0.7974 -0.39685,-0.8391 -0.30992,-0.8731 -0.22678,-0.8995 -0.13606,-0.9146 -0.0454,-0.926 0.0454,-0.926 0.13606,-0.9184 0.22678,-0.8996 0.30992,-0.873 0.39685,-0.8391 0.47622,-0.7937 0.55181,-0.7446 0.62362,-0.6878 0.68787,-0.6237 0.74457,-0.5518 0.79748,-0.4762 0.83528,-0.3968 0.87307,-0.3137 0.89953,-0.223 0.91842,-0.1361 0.92599,-0.045 0.92598,0.045 0.91843,0.1361 0.89952,0.223 0.87307,0.3137 0.83528,0.3968 0.79748,0.4762 0.74457,0.5518 0.68787,0.6237 0.62362,0.6878 0.55181,0.7446 0.47622,0.7937 0.39685,0.8391 0.30993,0.873 0.22677,0.8996 0.13606,0.9184 0.0454,0.926 -0.0454,0.926 -0.13606,0.9146 -0.22677,0.8995 -0.30993,0.8731 -0.39685,0.8391 -0.47622,0.7974 -0.55181,0.7446 -0.62362,0.6841 -0.68787,0.6236 -0.74457,0.5518 -0.79748,0.4763 -0.83528,0.3968 -0.87307,0.3137 -0.89952,0.2268 -0.91843,0.136 -0.92598,0.045 z m 302.36221,0 -0.91843,-0.136 -0.89953,-0.2268 -0.87307,-0.3137 -0.83527,-0.3968 -0.79748,-0.4763 -0.74457,-0.5518 -0.68787,-0.6236 -0.62363,-0.6841 -0.55181,-0.7446 -0.47622,-0.7974 -0.39685,-0.8391 -0.30992,-0.8731 -0.22677,-0.8995 -0.13606,-0.9146 -0.0454,-0.926 0.0454,-0.926 0.13606,-0.9184 0.22677,-0.8996 0.30992,-0.873 0.39685,-0.8391 0.47622,-0.7937 0.55181,-0.7446 0.62363,-0.6878 0.68787,-0.6237 0.74457,-0.5518 0.79748,-0.4762 0.83527,-0.3968 0.87307,-0.3137 0.89953,-0.223 0.91843,-0.1361 0.92598,-0.045 0.92598,0.045 0.91843,0.1361 0.89953,0.223 0.87307,0.3137 0.83527,0.3968 0.79748,0.4762 0.74457,0.5518 0.68788,0.6237 0.62362,0.6878 0.55181,0.7446 0.47622,0.7937 0.39685,0.8391 0.30992,0.873 0.22677,0.8996 0.13606,0.9184 0.0454,0.926 -0.0454,0.926 -0.13606,0.9146 -0.22677,0.8995 -0.30992,0.8731 -0.39685,0.8391 -0.47622,0.7974 -0.55181,0.7446 -0.62362,0.6841 -0.68788,0.6236 -0.74457,0.5518 -0.79748,0.4763 -0.83527,0.3968 -0.87307,0.3137 -0.89953,0.2268 -0.91843,0.136 -0.92598,0.045 z m 75.59055,0 -0.91843,-0.136 -0.89953,-0.2268 -0.87307,-0.3137 -0.83527,-0.3968 -0.79748,-0.4763 -0.74457,-0.5518 -0.68787,-0.6236 -0.62363,-0.6841 -0.55181,-0.7446 -0.47622,-0.7974 -0.39685,-0.8391 -0.30992,-0.8731 -0.22677,-0.8995 -0.13606,-0.9146 -0.0454,-0.926 0.0454,-0.926 0.13606,-0.9184 0.22677,-0.8996 0.30992,-0.873 0.39685,-0.8391 0.47622,-0.7937 0.55181,-0.7446 0.62363,-0.6878 0.68787,-0.6237 0.74457,-0.5518 0.79748,-0.4762 0.83527,-0.3968 0.87307,-0.3137 0.89953,-0.223 0.91843,-0.1361 0.92598,-0.045 0.92599,0.045 0.91842,0.1361 0.89953,0.223 0.87307,0.3137 0.83527,0.3968 0.79749,0.4762 0.74456,0.5518 0.68788,0.6237 0.62362,0.6878 0.55181,0.7446 0.47622,0.7937 0.39685,0.8391 0.30992,0.873 0.22677,0.8996 0.13607,0.9184 0.0453,0.926 -0.0453,0.926 -0.13607,0.9146 -0.22677,0.8995 -0.30992,0.8731 -0.39685,0.8391 -0.47622,0.7974 -0.55181,0.7446 -0.62362,0.6841 -0.68788,0.6236 -0.74456,0.5518 -0.79749,0.4763 -0.83527,0.3968 -0.87307,0.3137 -0.89953,0.2268 -0.91842,0.136 -0.92599,0.045 z m 75.59055,0 -0.91843,-0.136 -0.89952,-0.2268 -0.87308,-0.3137 -0.83527,-0.3968 -0.79748,-0.4763 -0.74457,-0.5518 -0.68787,-0.6236 -0.62362,-0.6841 -0.55182,-0.7446 -0.47622,-0.7974 -0.39685,-0.8391 -0.30992,-0.8731 -0.22677,-0.8995 -0.13606,-0.9146 -0.0454,-0.926 0.0454,-0.926 0.13606,-0.9184 0.22677,-0.8996 0.30992,-0.873 0.39685,-0.8391 0.47622,-0.7937 0.55182,-0.7446 0.62362,-0.6878 0.68787,-0.6237 0.74457,-0.5518 0.79748,-0.4762 0.83527,-0.3968 0.87308,-0.3137 0.89952,-0.223 0.91843,-0.1361 0.92598,-0.045 0.92599,0.045 0.91842,0.1361 0.89953,0.223 0.87307,0.3137 0.83528,0.3968 0.79748,0.4762 0.74456,0.5518 0.68788,0.6237 0.62362,0.6878 0.55181,0.7446 0.47622,0.7937 0.39685,0.8391 0.30992,0.873 0.22677,0.8996 0.13607,0.9184 0.0454,0.926 -0.0454,0.926 -0.13607,0.9146 -0.22677,0.8995 -0.30992,0.8731 -0.39685,0.8391 -0.47622,0.7974 -0.55181,0.7446 -0.62362,0.6841 -0.68788,0.6236 -0.74456,0.5518 -0.79748,0.4763 -0.83528,0.3968 -0.87307,0.3137 -0.89953,0.2268 -0.91842,0.136 -0.92599,0.045 z m 75.59055,0 -0.91843,-0.136 -0.89952,-0.2268 -0.87307,-0.3137 -0.83528,-0.3968 -0.79748,-0.4763 -0.74457,-0.5518 -0.68787,-0.6236 -0.62362,-0.6841 -0.55181,-0.7446 -0.47622,-0.7974 -0.39685,-0.8391 -0.30993,-0.8731 -0.22677,-0.8995 -0.13606,-0.9146 -0.0454,-0.926 0.0454,-0.926 0.13606,-0.9184 0.22677,-0.8996 0.30993,-0.873 0.39685,-0.8391 0.47622,-0.7937 0.55181,-0.7446 0.62362,-0.6878 0.68787,-0.6237 0.74457,-0.5518 0.79748,-0.4762 0.83528,-0.3968 0.87307,-0.3137 0.89952,-0.223 0.91843,-0.1361 0.92598,-0.045 0.92599,0.045 0.91842,0.1361 0.89953,0.223 0.87307,0.3137 0.83528,0.3968 0.79748,0.4762 0.74456,0.5518 0.68788,0.6237 0.62362,0.6878 0.55181,0.7446 0.47622,0.7937 0.39685,0.8391 0.30992,0.873 0.22678,0.8996 0.13606,0.9184 0.0454,0.926 -0.0454,0.926 -0.13606,0.9146 -0.22678,0.8995 -0.30992,0.8731 -0.39685,0.8391 -0.47622,0.7974 -0.55181,0.7446 -0.62362,0.6841 -0.68788,0.6236 -0.74456,0.5518 -0.79748,0.4763 -0.83528,0.3968 -0.87307,0.3137 -0.89953,0.2268 -0.91842,0.136 -0.92599,0.045 z m 75.59055,0 -0.9184,-0.136 -0.89955,-0.2268 -0.87307,-0.3137 -0.83528,-0.3968 -0.79748,-0.4763 -0.74457,-0.5518 -0.68787,-0.6236 -0.62362,-0.6841 -0.55181,-0.7446 -0.47622,-0.7974 -0.39685,-0.8391 -0.30992,-0.8731 -0.22678,-0.8995 -0.13606,-0.9146 -0.0453,-0.926 0.0453,-0.926 0.13606,-0.9184 0.22678,-0.8996 0.30992,-0.873 0.39685,-0.8391 0.47622,-0.7937 0.55181,-0.7446 0.62362,-0.6878 0.68787,-0.6237 0.74457,-0.5518 0.79748,-0.4762 0.83528,-0.3968 0.87307,-0.3137 0.89955,-0.223 0.9184,-0.1361 0.926,-0.045 0.926,0.045 0.9184,0.1361 0.8995,0.223 0.8731,0.3137 0.8353,0.3968 0.7974,0.4762 0.7446,0.5518 0.6879,0.6237 0.6236,0.6878 0.5518,0.7446 0.4762,0.7937 0.3969,0.8391 0.3099,0.873 0.2268,0.8996 0.136,0.9184 0.045,0.926 -0.045,0.926 -0.136,0.9146 -0.2268,0.8995 -0.3099,0.8731 -0.3969,0.8391 -0.4762,0.7974 -0.5518,0.7446 -0.6236,0.6841 -0.6879,0.6236 -0.7446,0.5518 -0.7974,0.4763 -0.8353,0.3968 -0.8731,0.3137 -0.8995,0.2268 -0.9184,0.136 -0.926,0.045 z m 75.5906,0 -0.9185,-0.136 -0.8995,-0.2268 -0.8731,-0.3137 -0.8352,-0.3968 -0.7975,-0.4763 -0.7446,-0.5518 -0.6879,-0.6236 -0.6236,-0.6841 -0.5518,-0.7446 -0.4762,-0.7974 -0.3969,-0.8391 -0.3099,-0.8731 -0.2268,-0.8995 -0.136,-0.9146 -0.045,-0.926 0.045,-0.926 0.136,-0.9184 0.2268,-0.8996 0.3099,-0.873 0.3969,-0.8391 0.4762,-0.7937 0.5518,-0.7446 0.6236,-0.6878 0.6879,-0.6237 0.7446,-0.5518 0.7975,-0.4762 0.8352,-0.3968 0.8731,-0.3137 0.8995,-0.223 0.9185,-0.1361 0.9259,-0.045 0.926,0.045 0.9184,0.1361 0.8996,0.223 0.873,0.3137 0.8353,0.3968 0.7975,0.4762 0.7446,0.5518 0.6878,0.6237 0.6237,0.6878 0.5518,0.7446 0.4762,0.7937 0.3968,0.8391 0.31,0.873 0.2267,0.8996 0.1361,0.9184 0.045,0.926 -0.045,0.926 -0.1361,0.9146 -0.2267,0.8995 -0.31,0.8731 -0.3968,0.8391 -0.4762,0.7974 -0.5518,0.7446 -0.6237,0.6841 -0.6878,0.6236 -0.7446,0.5518 -0.7975,0.4763 -0.8353,0.3968 -0.873,0.3137 -0.8996,0.2268 -0.9184,0.136 -0.926,0.045 z m -453.54336,0 -0.91842,-0.136 -0.89953,-0.2268 -0.87307,-0.3137 -0.83527,-0.3968 -0.79748,-0.4763 -0.74457,-0.5518 -0.68788,-0.6236 -0.62362,-0.6841 -0.55181,-0.7446 -0.47622,-0.7974 -0.39685,-0.8391 -0.30992,-0.8731 -0.22677,-0.8995 -0.13607,-0.9146 -0.0453,-0.926 0.0453,-0.926 0.13607,-0.9184 0.22677,-0.8996 0.30992,-0.873 0.39685,-0.8391 0.47622,-0.7937 0.55181,-0.7446 0.62362,-0.6878 0.68788,-0.6237 0.74457,-0.5518 0.79748,-0.4762 0.83527,-0.3968 0.87307,-0.3137 0.89953,-0.223 0.91842,-0.1361 0.92599,-0.045 0.92598,0.045 0.91843,0.1361 0.89953,0.223 0.87307,0.3137 0.83527,0.3968 0.79748,0.4762 0.74457,0.5518 0.68787,0.6237 0.62363,0.6878 0.55181,0.7446 0.47622,0.7937 0.39685,0.8391 0.30992,0.873 0.22677,0.8996 0.13606,0.9184 0.0454,0.926 -0.0454,0.926 -0.13606,0.9146 -0.22677,0.8995 -0.30992,0.8731 -0.39685,0.8391 -0.47622,0.7974 -0.55181,0.7446 -0.62363,0.6841 -0.68787,0.6236 -0.74457,0.5518 -0.79748,0.4763 -0.83527,0.3968 -0.87307,0.3137 -0.89953,0.2268 -0.91843,0.136 -0.92598,0.045 z m -188.05417,69.1881 v -50.3509 h 15.95717 v 50.3509 z m 566.92913,0 v -50.3509 h 15.9572 v 50.3509 z m -982.677198,0 v -50.3509 H 35.54583 v 50.3509 z m 36.850432,267.6623 h 55.755586 v 15.9534 h 55.74048 v -15.9534 h 55.75559 v 15.9534 h 55.74047 v -15.9534 h 55.75559 v 15.9534 h 55.74047 v -15.9534 h 55.75559 v 15.9534 h 55.74048 v -15.9534 h 55.75559 v 15.9534 h 55.74047 v -15.9534 h 55.75559 v 15.9534 h 55.74047 v -15.9534 h 55.75559 v 15.9534 h 55.74047 v -15.9534 h 55.7556 v 15.9534 h 55.74047 v -15.9534 h 55.75556 v 15.9534 h 55.7405 v -15.9534 h 55.7518 v -201.3694 h -97.4324 v 50.3471 h -15.9572 v -50.3471 H 451.29394 v 50.3471 h -15.95717 v -50.3471 H 35.54583 v 50.3471 H 19.588702 v -50.3471 H 0.69488189 v 217.3228 H 56.439134 Z m 37.817575,-119.5237 -0.916914,-0.1361 -0.899527,-0.2268 -0.873071,-0.3137 -0.838299,-0.3968 -0.795213,-0.4763 -0.744945,-0.5518 -0.687118,-0.6236 -0.622488,-0.6841 -0.552567,-0.7445 -0.476598,-0.7975 -0.396473,-0.8391 -0.312567,-0.8731 -0.22526,-0.8995 -0.136063,-0.9146 -0.04535,-0.926 0.04535,-0.926 0.136063,-0.9184 0.22526,-0.8995 0.312567,-0.8731 0.396473,-0.8391 0.476598,-0.7937 0.552567,-0.7445 0.622488,-0.6879 0.687118,-0.6236 0.744945,-0.5518 0.795213,-0.4763 0.838299,-0.3968 0.873071,-0.3137 0.899527,-0.223 0.916914,-0.1361 0.926362,-0.045 0.925984,0.045 0.917291,0.1361 0.899528,0.223 0.873071,0.3137 0.838299,0.3968 0.795216,0.4763 0.74494,0.5518 0.68712,0.6236 0.62249,0.6879 0.55256,0.7445 0.4766,0.7937 0.39648,0.8391 0.31218,0.8731 0.22564,0.8995 0.13607,0.9184 0.0453,0.926 -0.0453,0.926 -0.13607,0.9146 -0.22564,0.8995 -0.31218,0.8731 -0.39648,0.8391 -0.4766,0.7975 -0.55256,0.7445 -0.62249,0.6841 -0.68712,0.6236 -0.74494,0.5518 -0.795216,0.4763 -0.838299,0.3968 -0.873071,0.3137 -0.899528,0.2268 -0.917291,0.1361 -0.925984,0.045 z m 151.181101,0 -0.91691,-0.1361 -0.89953,-0.2268 -0.87307,-0.3137 -0.8383,-0.3968 -0.79521,-0.4763 -0.74495,-0.5518 -0.68712,-0.6236 -0.62248,-0.6841 -0.55257,-0.7445 -0.4766,-0.7975 -0.39647,-0.8391 -0.31257,-0.8731 -0.22526,-0.8995 -0.13606,-0.9146 -0.0454,-0.926 0.0454,-0.926 0.13606,-0.9184 0.22526,-0.8995 0.31257,-0.8731 0.39647,-0.8391 0.4766,-0.7937 0.55257,-0.7445 0.62248,-0.6879 0.68712,-0.6236 0.74495,-0.5518 0.79521,-0.4763 0.8383,-0.3968 0.87307,-0.3137 0.89953,-0.223 0.91691,-0.1361 0.92636,-0.045 0.92599,0.045 0.91729,0.1361 0.89953,0.223 0.87307,0.3137 0.8383,0.3968 0.79521,0.4763 0.74494,0.5518 0.68712,0.6236 0.62249,0.6879 0.55257,0.7445 0.4766,0.7937 0.39647,0.8391 0.31219,0.8731 0.22563,0.8995 0.13607,0.9184 0.0454,0.926 -0.0454,0.926 -0.13607,0.9146 -0.22563,0.8995 -0.31219,0.8731 -0.39647,0.8391 -0.4766,0.7975 -0.55257,0.7445 -0.62249,0.6841 -0.68712,0.6236 -0.74494,0.5518 -0.79521,0.4763 -0.8383,0.3968 -0.87307,0.3137 -0.89953,0.2268 -0.91729,0.1361 -0.92599,0.045 z m 831.49649,0 -0.9185,-0.1361 -0.8995,-0.2268 -0.8731,-0.3137 -0.8352,-0.3968 -0.7975,-0.4763 -0.7446,-0.5518 -0.6879,-0.6236 -0.6236,-0.6841 -0.5518,-0.7445 -0.4762,-0.7975 -0.3969,-0.8391 -0.3099,-0.8731 -0.2268,-0.8995 -0.136,-0.9146 -0.045,-0.926 0.045,-0.926 0.136,-0.9184 0.2268,-0.8995 0.3099,-0.8731 0.3969,-0.8391 0.4762,-0.7937 0.5518,-0.7445 0.6236,-0.6879 0.6879,-0.6236 0.7446,-0.5518 0.7975,-0.4763 0.8352,-0.3968 0.8731,-0.3137 0.8995,-0.223 0.9185,-0.1361 0.9259,-0.045 0.926,0.045 0.9184,0.1361 0.8996,0.223 0.873,0.3137 0.8353,0.3968 0.7975,0.4763 0.7446,0.5518 0.6878,0.6236 0.6237,0.6879 0.5518,0.7445 0.4762,0.7937 0.3968,0.8391 0.31,0.8731 0.2267,0.8995 0.1361,0.9184 0.045,0.926 -0.045,0.926 -0.1361,0.9146 -0.2267,0.8995 -0.31,0.8731 -0.3968,0.8391 -0.4762,0.7975 -0.5518,0.7445 -0.6237,0.6841 -0.6878,0.6236 -0.7446,0.5518 -0.7975,0.4763 -0.8353,0.3968 -0.873,0.3137 -0.8996,0.2268 -0.9184,0.1361 -0.926,0.045 z m -755.90594,0 -0.91691,-0.1361 -0.89953,-0.2268 -0.87307,-0.3137 -0.8383,-0.3968 -0.79521,-0.4763 -0.74495,-0.5518 -0.68711,-0.6236 -0.62249,-0.6841 -0.55257,-0.7445 -0.4766,-0.7975 -0.39647,-0.8391 -0.31257,-0.8731 -0.22526,-0.8995 -0.13606,-0.9146 -0.0454,-0.926 0.0454,-0.926 0.13606,-0.9184 0.22526,-0.8995 0.31257,-0.8731 0.39647,-0.8391 0.4766,-0.7937 0.55257,-0.7445 0.62249,-0.6879 0.68711,-0.6236 0.74495,-0.5518 0.79521,-0.4763 0.8383,-0.3968 0.87307,-0.3137 0.89953,-0.223 0.91691,-0.1361 0.92636,-0.045 0.92599,0.045 0.91729,0.1361 0.89953,0.223 0.87307,0.3137 0.8383,0.3968 0.79521,0.4763 0.74495,0.5518 0.68711,0.6236 0.62249,0.6879 0.55257,0.7445 0.4766,0.7937 0.39647,0.8391 0.31219,0.8731 0.22564,0.8995 0.13606,0.9184 0.0454,0.926 -0.0454,0.926 -0.13606,0.9146 -0.22564,0.8995 -0.31219,0.8731 -0.39647,0.8391 -0.4766,0.7975 -0.55257,0.7445 -0.62249,0.6841 -0.68711,0.6236 -0.74495,0.5518 -0.79521,0.4763 -0.8383,0.3968 -0.87307,0.3137 -0.89953,0.2268 -0.91729,0.1361 -0.92599,0.045 z m 226.77203,0 -0.91842,-0.1361 -0.89953,-0.2268 -0.87307,-0.3137 -0.83528,-0.3968 -0.79748,-0.4763 -0.74456,-0.5518 -0.68788,-0.6236 -0.62362,-0.6841 -0.55181,-0.7445 -0.47622,-0.7975 -0.39685,-0.8391 -0.30992,-0.8731 -0.22677,-0.8995 -0.13607,-0.9146 -0.0453,-0.926 0.0453,-0.926 0.13607,-0.9184 0.22677,-0.8995 0.30992,-0.8731 0.39685,-0.8391 0.47622,-0.7937 0.55181,-0.7445 0.62362,-0.6879 0.68788,-0.6236 0.74456,-0.5518 0.79748,-0.4763 0.83528,-0.3968 0.87307,-0.3137 0.89953,-0.223 0.91842,-0.1361 0.92599,-0.045 0.92598,0.045 0.91843,0.1361 0.89952,0.223 0.87308,0.3137 0.83527,0.3968 0.79748,0.4763 0.74457,0.5518 0.68787,0.6236 0.62362,0.6879 0.55182,0.7445 0.47622,0.7937 0.39685,0.8391 0.30992,0.8731 0.22677,0.8995 0.13606,0.9184 0.0454,0.926 -0.0454,0.926 -0.13606,0.9146 -0.22677,0.8995 -0.30992,0.8731 -0.39685,0.8391 -0.47622,0.7975 -0.55182,0.7445 -0.62362,0.6841 -0.68787,0.6236 -0.74457,0.5518 -0.79748,0.4763 -0.83527,0.3968 -0.87308,0.3137 -0.89952,0.2268 -0.91843,0.1361 -0.92598,0.045 z m 75.59055,0 -0.91842,-0.1361 -0.89953,-0.2268 -0.87307,-0.3137 -0.83527,-0.3968 -0.79748,-0.4763 -0.74457,-0.5518 -0.68788,-0.6236 -0.62362,-0.6841 -0.55181,-0.7445 -0.47622,-0.7975 -0.39685,-0.8391 -0.30992,-0.8731 -0.22677,-0.8995 -0.13607,-0.9146 -0.0453,-0.926 0.0453,-0.926 0.13607,-0.9184 0.22677,-0.8995 0.30992,-0.8731 0.39685,-0.8391 0.47622,-0.7937 0.55181,-0.7445 0.62362,-0.6879 0.68788,-0.6236 0.74457,-0.5518 0.79748,-0.4763 0.83527,-0.3968 0.87307,-0.3137 0.89953,-0.223 0.91842,-0.1361 0.92599,-0.045 0.92598,0.045 0.91843,0.1361 0.89953,0.223 0.87307,0.3137 0.83527,0.3968 0.79748,0.4763 0.74457,0.5518 0.68787,0.6236 0.62363,0.6879 0.55181,0.7445 0.47622,0.7937 0.39685,0.8391 0.30992,0.8731 0.22677,0.8995 0.13606,0.9184 0.0454,0.926 -0.0454,0.926 -0.13606,0.9146 -0.22677,0.8995 -0.30992,0.8731 -0.39685,0.8391 -0.47622,0.7975 -0.55181,0.7445 -0.62363,0.6841 -0.68787,0.6236 -0.74457,0.5518 -0.79748,0.4763 -0.83527,0.3968 -0.87307,0.3137 -0.89953,0.2268 -0.91843,0.1361 -0.92598,0.045 z m 377.95276,0 -0.9184,-0.1361 -0.89955,-0.2268 -0.87307,-0.3137 -0.83528,-0.3968 -0.79748,-0.4763 -0.74457,-0.5518 -0.68787,-0.6236 -0.62362,-0.6841 -0.55181,-0.7445 -0.47622,-0.7975 -0.39685,-0.8391 -0.30992,-0.8731 -0.22678,-0.8995 -0.13606,-0.9146 -0.0453,-0.926 0.0453,-0.926 0.13606,-0.9184 0.22678,-0.8995 0.30992,-0.8731 0.39685,-0.8391 0.47622,-0.7937 0.55181,-0.7445 0.62362,-0.6879 0.68787,-0.6236 0.74457,-0.5518 0.79748,-0.4763 0.83528,-0.3968 0.87307,-0.3137 0.89955,-0.223 0.9184,-0.1361 0.926,-0.045 0.926,0.045 0.9184,0.1361 0.8995,0.223 0.8731,0.3137 0.8353,0.3968 0.7974,0.4763 0.7446,0.5518 0.6879,0.6236 0.6236,0.6879 0.5518,0.7445 0.4762,0.7937 0.3969,0.8391 0.3099,0.8731 0.2268,0.8995 0.136,0.9184 0.045,0.926 -0.045,0.926 -0.136,0.9146 -0.2268,0.8995 -0.3099,0.8731 -0.3969,0.8391 -0.4762,0.7975 -0.5518,0.7445 -0.6236,0.6841 -0.6879,0.6236 -0.7446,0.5518 -0.7974,0.4763 -0.8353,0.3968 -0.8731,0.3137 -0.8995,0.2268 -0.9184,0.1361 -0.926,0.045 z m -604.72441,0 -0.91842,-0.1361 -0.89953,-0.2268 -0.87307,-0.3137 -0.83528,-0.3968 -0.79748,-0.4763 -0.74457,-0.5518 -0.68787,-0.6236 -0.62362,-0.6841 -0.55181,-0.7445 -0.47622,-0.7975 -0.39685,-0.8391 -0.30992,-0.8731 -0.22678,-0.8995 -0.13606,-0.9146 -0.0454,-0.926 0.0454,-0.926 0.13606,-0.9184 0.22678,-0.8995 0.30992,-0.8731 0.39685,-0.8391 0.47622,-0.7937 0.55181,-0.7445 0.62362,-0.6879 0.68787,-0.6236 0.74457,-0.5518 0.79748,-0.4763 0.83528,-0.3968 0.87307,-0.3137 0.89953,-0.223 0.91842,-0.1361 0.92599,-0.045 0.92598,0.045 0.91843,0.1361 0.89952,0.223 0.87307,0.3137 0.83528,0.3968 0.79748,0.4763 0.74457,0.5518 0.68787,0.6236 0.62362,0.6879 0.55181,0.7445 0.47622,0.7937 0.39685,0.8391 0.30993,0.8731 0.22677,0.8995 0.13606,0.9184 0.0454,0.926 -0.0454,0.926 -0.13606,0.9146 -0.22677,0.8995 -0.30993,0.8731 -0.39685,0.8391 -0.47622,0.7975 -0.55181,0.7445 -0.62362,0.6841 -0.68787,0.6236 -0.74457,0.5518 -0.79748,0.4763 -0.83528,0.3968 -0.87307,0.3137 -0.89952,0.2268 -0.91843,0.1361 -0.92598,0.045 z m 302.36221,0 -0.91843,-0.1361 -0.89953,-0.2268 -0.87307,-0.3137 -0.83527,-0.3968 -0.79748,-0.4763 -0.74457,-0.5518 -0.68787,-0.6236 -0.62363,-0.6841 -0.55181,-0.7445 -0.47622,-0.7975 -0.39685,-0.8391 -0.30992,-0.8731 -0.22677,-0.8995 -0.13606,-0.9146 -0.0454,-0.926 0.0454,-0.926 0.13606,-0.9184 0.22677,-0.8995 0.30992,-0.8731 0.39685,-0.8391 0.47622,-0.7937 0.55181,-0.7445 0.62363,-0.6879 0.68787,-0.6236 0.74457,-0.5518 0.79748,-0.4763 0.83527,-0.3968 0.87307,-0.3137 0.89953,-0.223 0.91843,-0.1361 0.92598,-0.045 0.92598,0.045 0.91843,0.1361 0.89953,0.223 0.87307,0.3137 0.83527,0.3968 0.79748,0.4763 0.74457,0.5518 0.68788,0.6236 0.62362,0.6879 0.55181,0.7445 0.47622,0.7937 0.39685,0.8391 0.30992,0.8731 0.22677,0.8995 0.13606,0.9184 0.0454,0.926 -0.0454,0.926 -0.13606,0.9146 -0.22677,0.8995 -0.30992,0.8731 -0.39685,0.8391 -0.47622,0.7975 -0.55181,0.7445 -0.62362,0.6841 -0.68788,0.6236 -0.74457,0.5518 -0.79748,0.4763 -0.83527,0.3968 -0.87307,0.3137 -0.89953,0.2268 -0.91843,0.1361 -0.92598,0.045 z m 75.59055,0 -0.91843,-0.1361 -0.89953,-0.2268 -0.87307,-0.3137 -0.83527,-0.3968 -0.79748,-0.4763 -0.74457,-0.5518 -0.68787,-0.6236 -0.62363,-0.6841 -0.55181,-0.7445 -0.47622,-0.7975 -0.39685,-0.8391 -0.30992,-0.8731 -0.22677,-0.8995 -0.13606,-0.9146 -0.0454,-0.926 0.0454,-0.926 0.13606,-0.9184 0.22677,-0.8995 0.30992,-0.8731 0.39685,-0.8391 0.47622,-0.7937 0.55181,-0.7445 0.62363,-0.6879 0.68787,-0.6236 0.74457,-0.5518 0.79748,-0.4763 0.83527,-0.3968 0.87307,-0.3137 0.89953,-0.223 0.91843,-0.1361 0.92598,-0.045 0.92599,0.045 0.91842,0.1361 0.89953,0.223 0.87307,0.3137 0.83527,0.3968 0.79749,0.4763 0.74456,0.5518 0.68788,0.6236 0.62362,0.6879 0.55181,0.7445 0.47622,0.7937 0.39685,0.8391 0.30992,0.8731 0.22677,0.8995 0.13607,0.9184 0.0453,0.926 -0.0453,0.926 -0.13607,0.9146 -0.22677,0.8995 -0.30992,0.8731 -0.39685,0.8391 -0.47622,0.7975 -0.55181,0.7445 -0.62362,0.6841 -0.68788,0.6236 -0.74456,0.5518 -0.79749,0.4763 -0.83527,0.3968 -0.87307,0.3137 -0.89953,0.2268 -0.91842,0.1361 -0.92599,0.045 z m 75.59055,0 -0.91843,-0.1361 -0.89952,-0.2268 -0.87308,-0.3137 -0.83527,-0.3968 -0.79748,-0.4763 -0.74457,-0.5518 -0.68787,-0.6236 -0.62362,-0.6841 -0.55182,-0.7445 -0.47622,-0.7975 -0.39685,-0.8391 -0.30992,-0.8731 -0.22677,-0.8995 -0.13606,-0.9146 -0.0454,-0.926 0.0454,-0.926 0.13606,-0.9184 0.22677,-0.8995 0.30992,-0.8731 0.39685,-0.8391 0.47622,-0.7937 0.55182,-0.7445 0.62362,-0.6879 0.68787,-0.6236 0.74457,-0.5518 0.79748,-0.4763 0.83527,-0.3968 0.87308,-0.3137 0.89952,-0.223 0.91843,-0.1361 0.92598,-0.045 0.92599,0.045 0.91842,0.1361 0.89953,0.223 0.87307,0.3137 0.83528,0.3968 0.79748,0.4763 0.74456,0.5518 0.68788,0.6236 0.62362,0.6879 0.55181,0.7445 0.47622,0.7937 0.39685,0.8391 0.30992,0.8731 0.22677,0.8995 0.13607,0.9184 0.0454,0.926 -0.0454,0.926 -0.13607,0.9146 -0.22677,0.8995 -0.30992,0.8731 -0.39685,0.8391 -0.47622,0.7975 -0.55181,0.7445 -0.62362,0.6841 -0.68788,0.6236 -0.74456,0.5518 -0.79748,0.4763 -0.83528,0.3968 -0.87307,0.3137 -0.89953,0.2268 -0.91842,0.1361 -0.92599,0.045 z m 75.59055,0 -0.91843,-0.1361 -0.89952,-0.2268 -0.87307,-0.3137 -0.83528,-0.3968 -0.79748,-0.4763 -0.74457,-0.5518 -0.68787,-0.6236 -0.62362,-0.6841 -0.55181,-0.7445 -0.47622,-0.7975 -0.39685,-0.8391 -0.30993,-0.8731 -0.22677,-0.8995 -0.13606,-0.9146 -0.0454,-0.926 0.0454,-0.926 0.13606,-0.9184 0.22677,-0.8995 0.30993,-0.8731 0.39685,-0.8391 0.47622,-0.7937 0.55181,-0.7445 0.62362,-0.6879 0.68787,-0.6236 0.74457,-0.5518 0.79748,-0.4763 0.83528,-0.3968 0.87307,-0.3137 0.89952,-0.223 0.91843,-0.1361 0.92598,-0.045 0.92599,0.045 0.91842,0.1361 0.89953,0.223 0.87307,0.3137 0.83528,0.3968 0.79748,0.4763 0.74456,0.5518 0.68788,0.6236 0.62362,0.6879 0.55181,0.7445 0.47622,0.7937 0.39685,0.8391 0.30992,0.8731 0.22678,0.8995 0.13606,0.9184 0.0454,0.926 -0.0454,0.926 -0.13606,0.9146 -0.22678,0.8995 -0.30992,0.8731 -0.39685,0.8391 -0.47622,0.7975 -0.55181,0.7445 -0.62362,0.6841 -0.68788,0.6236 -0.74456,0.5518 -0.79748,0.4763 -0.83528,0.3968 -0.87307,0.3137 -0.89953,0.2268 -0.91842,0.1361 -0.92599,0.045 z m -453.54331,0 -0.91842,-0.1361 -0.89953,-0.2268 -0.87307,-0.3137 -0.83528,-0.3968 -0.79748,-0.4763 -0.74456,-0.5518 -0.68788,-0.6236 -0.62362,-0.6841 -0.55181,-0.7445 -0.47622,-0.7975 -0.39685,-0.8391 -0.30992,-0.8731 -0.22677,-0.8995 -0.13607,-0.9146 -0.0454,-0.926 0.0454,-0.926 0.13607,-0.9184 0.22677,-0.8995 0.30992,-0.8731 0.39685,-0.8391 0.47622,-0.7937 0.55181,-0.7445 0.62362,-0.6879 0.68788,-0.6236 0.74456,-0.5518 0.79748,-0.4763 0.83528,-0.3968 0.87307,-0.3137 0.89953,-0.223 0.91842,-0.1361 0.92599,-0.045 0.92598,0.045 0.91843,0.1361 0.89952,0.223 0.87307,0.3137 0.83528,0.3968 0.79748,0.4763 0.74457,0.5518 0.68787,0.6236 0.62362,0.6879 0.55181,0.7445 0.47623,0.7937 0.39685,0.8391 0.30992,0.8731 0.22677,0.8995 0.13606,0.9184 0.0454,0.926 -0.0454,0.926 -0.13606,0.9146 -0.22677,0.8995 -0.30992,0.8731 -0.39685,0.8391 -0.47623,0.7975 -0.55181,0.7445 -0.62362,0.6841 -0.68787,0.6236 -0.74457,0.5518 -0.79748,0.4763 -0.83528,0.3968 -0.87307,0.3137 -0.89952,0.2268 -0.91843,0.1361 -0.92598,0.045 z m -302.36258,0 -0.91691,-0.1361 -0.89953,-0.2268 -0.87307,-0.3137 -0.8383,-0.3968 -0.79521,-0.4763 -0.74495,-0.5518 -0.68712,-0.6236 -0.62248,-0.6841 -0.55257,-0.7445 -0.4766,-0.7975 -0.39647,-0.8391 -0.31257,-0.8731 -0.22526,-0.8995 -0.13606,-0.9146 -0.0454,-0.926 0.0454,-0.926 0.13606,-0.9184 0.22526,-0.8995 0.31257,-0.8731 0.39647,-0.8391 0.4766,-0.7937 0.55257,-0.7445 0.62248,-0.6879 0.68712,-0.6236 0.74495,-0.5518 0.79521,-0.4763 0.8383,-0.3968 0.87307,-0.3137 0.89953,-0.223 0.91691,-0.1361 0.92636,-0.045 0.92599,0.045 0.91729,0.1361 0.89953,0.223 0.87307,0.3137 0.8383,0.3968 0.79521,0.4763 0.74494,0.5518 0.68712,0.6236 0.62249,0.6879 0.55257,0.7445 0.47659,0.7937 0.39648,0.8391 0.31219,0.8731 0.22563,0.8995 0.13607,0.9184 0.0454,0.926 -0.0454,0.926 -0.13607,0.9146 -0.22563,0.8995 -0.31219,0.8731 -0.39648,0.8391 -0.47659,0.7975 -0.55257,0.7445 -0.62249,0.6841 -0.68712,0.6236 -0.74494,0.5518 -0.79521,0.4763 -0.8383,0.3968 -0.87307,0.3137 -0.89953,0.2268 -0.91729,0.1361 -0.92599,0.045 z m 265.48951,69.188 v -50.3509 h 15.95717 v 50.3509 z m -415.748068,0 v -50.3509 H 35.54583 v 50.3509 z m 982.677198,0 v -50.3509 h 15.9572 v 50.3509 z m -890.07873,390.497 h 55.75559 v 15.9534 h 55.74047 v -15.9534 h 55.75559 v 15.9534 h 55.74047 v -15.9534 h 55.75559 v 15.9534 h 55.74047 v -15.9534 h 55.75559 v 15.9534 h 55.74048 v -15.9534 h 55.75559 v 15.9534 h 55.74047 v -15.9534 h 55.75559 v 15.9534 h 55.74047 v -15.9534 h 55.75559 v 15.9534 h 55.74048 v -15.9534 h 55.75559 v 15.9534 h 55.7405 v -15.9534 h 55.7556 v 15.9534 h 55.7404 v -15.9534 0 -324.2041 h -33.1842 v 15.9496 h -37.7953 v -15.9496 h -26.4529 v 81.0557 h -15.9572 v -81.0557 H 515.54213 v 15.9496 h -37.79528 v -15.9496 h -26.45291 v 81.0557 h -15.95717 v -81.0557 H 99.794094 v 15.9496 H 61.998819 v -15.9496 H 35.54583 v 81.0557 H 19.588702 v -81.0557 H 0.69488189 v 324.2041 H 56.446693 v 15.9534 h 55.740477 z m 323.1496,-81.0444 v -81.0595 h 15.95717 v 81.0595 z m -415.748068,0 v -81.0595 H 35.54583 v 81.0595 z m 982.677198,0 v -81.0595 h 15.9572 v 81.0595 z m -890.07873,421.2057 h 55.75559 v 15.9533 h 55.74047 v -15.9533 h 55.75559 v 15.9533 h 55.74047 v -15.9533 h 55.75559 v 15.9533 h 55.74047 v -15.9533 h 55.75559 v 15.9533 h 55.74048 v -15.9533 h 55.75559 v 15.9533 h 55.74047 v -15.9533 h 55.75559 v 15.9533 h 55.74047 v -15.9533 h 55.75559 v 15.9533 h 55.74048 v -15.9533 h 55.75559 v 15.9533 h 55.7405 v -15.9533 h 55.7556 v 15.9533 h 55.7404 v -15.9533 0 -324.2041 h -33.1842 v 15.9496 h -37.7953 v -15.9496 h -26.4529 v 81.0557 h -15.9572 v -81.0557 H 515.54213 v 15.9496 h -37.79528 v -15.9496 h -26.45291 v 81.0557 h -15.95717 v -81.0557 H 99.794094 v 15.9496 H 61.998819 v -15.9496 H 35.54583 v 81.0557 H 19.588702 v -81.0557 H 0.69488189 v 324.2041 H 56.446693 v 15.9533 h 55.740477 z m -92.598468,-81.0445 v -81.0595 H 35.54583 v 81.0595 z m 415.748068,0 v -81.0595 h 15.95717 v 81.0595 z m 566.92913,0 v -81.0595 h 15.9572 v 81.0595 z m -884.93858,421.20571 h 50.35087 v 15.95339 h 50.33575 v -15.95339 h 50.35086 v 15.95339 h 579.62079 v -15.95339 h 50.35087 v 15.95339 h 50.33574 v -15.95339 h 50.35087 v 15.95339 h 50.33573 v -15.95339 h 50.3433 v -81.05197 h 15.9534 v -81.04441 h -15.9534 v -81.05952 h 15.9534 v -81.04441 h -15.9534 v 0 H 16.648192 v 0 H 0.69488189 v 81.04441 H 16.648192 v 81.05952 H 0.69488189 v 81.04441 H 16.648192 v 81.05197 h 50.343383 v 15.95339 h 50.335745 z m 0,340.16126 h 50.35087 v 15.95339 h 50.33575 v -15.95339 h 50.35086 v 15.95339 h 579.62079 v -15.95339 h 50.35087 v 15.95339 h 50.33574 v -15.95339 h 50.35087 v 15.95339 h 50.33573 v -15.95339 h 50.3433 v -81.05197 h 15.9534 v -81.04441 h -15.9534 v -81.05952 h 15.9534 v -81.04441 h -15.9534 v -0.004 H 16.648192 v 0.004 H 0.69488189 v 81.04441 H 16.648192 v 81.05952 H 0.69488189 v 81.04441 H 16.648192 v 81.05197 h 50.343383 v 15.95339 h 50.335745 z m 0,340.1613 h 50.35087 v 15.95334811 h 50.33575 V -16.64823 H 268.3648 V -0.69488189 H 847.98559 V -16.648192 h 50.35087 V -0.69488189 H 948.6722 V -16.648192 h 50.35087 v 15.95331011 h 50.33573 V -16.648192 h 50.3433 v -81.052044 h 15.9534 v -81.044414 h -15.9534 v -81.05952 h 15.9534 v -81.04441 h -15.9534 v -0.004 H 16.648192 v 0.004 H 0.69488189 v 81.04441 H 16.648192 v 81.05952 H 0.69488189 v 81.044414 H 16.648192 v 81.052006 h 50.343383 v 15.95334811 h 50.335745 z"
     id="path758"
     inkscape:connector-curvature="0"
     style="fill:#d3d3d3;stroke:#000000;stroke-width:1.88976383" />
</svg>
