<?xml version="1.0" standalone="no"?>
<!DOCTYPE svg PUBLIC "-//W3C//DTD SVG 1.1//EN" "http://www.w3.org/Graphics/SVG/1.1/DTD/svg11.dtd">
<svg width="295" height="588" viewBox="0 -588 295 588" xmlns="http://www.w3.org/2000/svg" version="1.1">
<title>OpenSCAD Model</title>
<path d="
M 98.05,-188.95 L 93.78,-188.95 L 93.78,-210.05 L 98.05,-210.05 L 98.05,-230.95 L 93.78,-230.95
 L 93.78,-252.05 L 98.05,-252.05 L 98.05,-272.95 L 93.78,-272.95 L 93.78,-294.05 L 98.05,-294.05
 L 98.05,-314.95 L 93.78,-314.95 L 93.78,-336.05 L 98.05,-336.05 L 98.05,-356.95 L 93.78,-356.95
 L 93.78,-378.05 L 98.05,-378.05 L 98.05,-398.95 L 93.78,-398.95 L 93.78,-420.05 L 98.05,-420.05
 L 98.05,-440.95 L 93.78,-440.95 L 93.78,-462.05 L 98.05,-462.05 L 98.05,-482.95 L 93.78,-482.95
 L 93.78,-504.05 L 98.05,-504.05 L 98.05,-524.95 L 93.78,-524.95 L 93.78,-546.05 L 98.05,-546.05
 L 98.05,-566.95 L 93.78,-566.95 L 93.78,-588 L 48.05,-588 L 48.05,-492.27 L 48.1,-492.27
 L 48.1,-487.95 L 48.05,-487.95 L 48.05,-387.27 L 48.1,-387.27 L 48.1,-382.95 L 48.05,-382.95
 L 48.05,-282.27 L 48.1,-282.27 L 48.1,-277.95 L 48.05,-277.95 L 48.05,-177.27 L 48.1,-177.27
 L 48.1,-172.95 L 48.05,-172.95 L 48.05,-168 L 98.05,-168 z
M 64.4716,-570.512 L 64.2289,-570.548 L 63.991,-570.608 L 63.7599,-570.69 L 63.5382,-570.795 L 63.3277,-570.921
 L 63.1307,-571.067 L 62.9489,-571.232 L 62.7841,-571.414 L 62.638,-571.611 L 62.5119,-571.822 L 62.407,-572.043
 L 62.3243,-572.274 L 62.2647,-572.512 L 62.2287,-572.755 L 62.2167,-573 L 62.2287,-573.245 L 62.2647,-573.488
 L 62.3243,-573.726 L 62.407,-573.957 L 62.5119,-574.178 L 62.638,-574.389 L 62.7841,-574.586 L 62.9489,-574.768
 L 63.1307,-574.933 L 63.3277,-575.079 L 63.5382,-575.205 L 63.7599,-575.31 L 63.991,-575.392 L 64.2289,-575.452
 L 64.4716,-575.488 L 64.7167,-575.5 L 64.9617,-575.488 L 65.2044,-575.452 L 65.4424,-575.392 L 65.6734,-575.31
 L 65.8952,-575.205 L 66.1056,-575.079 L 66.3026,-574.933 L 66.4844,-574.768 L 66.6492,-574.586 L 66.7953,-574.389
 L 66.9215,-574.178 L 67.0264,-573.957 L 67.109,-573.726 L 67.1686,-573.488 L 67.2046,-573.245 L 67.2167,-573
 L 67.2046,-572.755 L 67.1686,-572.512 L 67.109,-572.274 L 67.0264,-572.043 L 66.9215,-571.822 L 66.7953,-571.611
 L 66.6492,-571.414 L 66.4844,-571.232 L 66.3026,-571.067 L 66.1056,-570.921 L 65.8952,-570.795 L 65.6734,-570.69
 L 65.4424,-570.608 L 65.2044,-570.548 L 64.9617,-570.512 L 64.7167,-570.5 z
M 64.4716,-550.512 L 64.2289,-550.548 L 63.991,-550.608 L 63.7599,-550.69 L 63.5382,-550.795 L 63.3277,-550.921
 L 63.1307,-551.067 L 62.9489,-551.232 L 62.7841,-551.414 L 62.638,-551.611 L 62.5119,-551.822 L 62.407,-552.043
 L 62.3243,-552.274 L 62.2647,-552.512 L 62.2287,-552.755 L 62.2167,-553 L 62.2287,-553.245 L 62.2647,-553.488
 L 62.3243,-553.726 L 62.407,-553.957 L 62.5119,-554.178 L 62.638,-554.389 L 62.7841,-554.586 L 62.9489,-554.768
 L 63.1307,-554.933 L 63.3277,-555.079 L 63.5382,-555.205 L 63.7599,-555.31 L 63.991,-555.392 L 64.2289,-555.452
 L 64.4716,-555.488 L 64.7167,-555.5 L 64.9617,-555.488 L 65.2044,-555.452 L 65.4424,-555.392 L 65.6734,-555.31
 L 65.8952,-555.205 L 66.1056,-555.079 L 66.3026,-554.933 L 66.4844,-554.768 L 66.6492,-554.586 L 66.7953,-554.389
 L 66.9215,-554.178 L 67.0264,-553.957 L 67.109,-553.726 L 67.1686,-553.488 L 67.2046,-553.245 L 67.2167,-553
 L 67.2046,-552.755 L 67.1686,-552.512 L 67.109,-552.274 L 67.0264,-552.043 L 66.9215,-551.822 L 66.7953,-551.611
 L 66.6492,-551.414 L 66.4844,-551.232 L 66.3026,-551.067 L 66.1056,-550.921 L 65.8952,-550.795 L 65.6734,-550.69
 L 65.4424,-550.608 L 65.2044,-550.548 L 64.9617,-550.512 L 64.7167,-550.5 z
M 64.4716,-530.512 L 64.2289,-530.548 L 63.991,-530.608 L 63.7599,-530.69 L 63.5382,-530.795 L 63.3277,-530.921
 L 63.1307,-531.067 L 62.9489,-531.232 L 62.7841,-531.414 L 62.638,-531.611 L 62.5119,-531.822 L 62.407,-532.043
 L 62.3243,-532.274 L 62.2647,-532.512 L 62.2287,-532.755 L 62.2167,-533 L 62.2287,-533.245 L 62.2647,-533.488
 L 62.3243,-533.726 L 62.407,-533.957 L 62.5119,-534.178 L 62.638,-534.389 L 62.7841,-534.586 L 62.9489,-534.768
 L 63.1307,-534.933 L 63.3277,-535.079 L 63.5382,-535.205 L 63.7599,-535.31 L 63.991,-535.392 L 64.2289,-535.452
 L 64.4716,-535.488 L 64.7167,-535.5 L 64.9617,-535.488 L 65.2044,-535.452 L 65.4424,-535.392 L 65.6734,-535.31
 L 65.8952,-535.205 L 66.1056,-535.079 L 66.3026,-534.933 L 66.4844,-534.768 L 66.6492,-534.586 L 66.7953,-534.389
 L 66.9215,-534.178 L 67.0264,-533.957 L 67.109,-533.726 L 67.1686,-533.488 L 67.2046,-533.245 L 67.2167,-533
 L 67.2046,-532.755 L 67.1686,-532.512 L 67.109,-532.274 L 67.0264,-532.043 L 66.9215,-531.822 L 66.7953,-531.611
 L 66.6492,-531.414 L 66.4844,-531.232 L 66.3026,-531.067 L 66.1056,-530.921 L 65.8952,-530.795 L 65.6734,-530.69
 L 65.4424,-530.608 L 65.2044,-530.548 L 64.9617,-530.512 L 64.7167,-530.5 z
M 64.4716,-510.512 L 64.2289,-510.548 L 63.991,-510.608 L 63.7599,-510.69 L 63.5382,-510.795 L 63.3277,-510.921
 L 63.1307,-511.067 L 62.9489,-511.232 L 62.7841,-511.414 L 62.638,-511.611 L 62.5119,-511.822 L 62.407,-512.043
 L 62.3243,-512.274 L 62.2647,-512.512 L 62.2287,-512.755 L 62.2167,-513 L 62.2287,-513.245 L 62.2647,-513.488
 L 62.3243,-513.726 L 62.407,-513.957 L 62.5119,-514.178 L 62.638,-514.389 L 62.7841,-514.586 L 62.9489,-514.768
 L 63.1307,-514.933 L 63.3277,-515.079 L 63.5382,-515.205 L 63.7599,-515.31 L 63.991,-515.392 L 64.2289,-515.452
 L 64.4716,-515.488 L 64.7167,-515.5 L 64.9617,-515.488 L 65.2044,-515.452 L 65.4424,-515.392 L 65.6734,-515.31
 L 65.8952,-515.205 L 66.1056,-515.079 L 66.3026,-514.933 L 66.4844,-514.768 L 66.6492,-514.586 L 66.7953,-514.389
 L 66.9215,-514.178 L 67.0264,-513.957 L 67.109,-513.726 L 67.1686,-513.488 L 67.2046,-513.245 L 67.2167,-513
 L 67.2046,-512.755 L 67.1686,-512.512 L 67.109,-512.274 L 67.0264,-512.043 L 66.9215,-511.822 L 66.7953,-511.611
 L 66.6492,-511.414 L 66.4844,-511.232 L 66.3026,-511.067 L 66.1056,-510.921 L 65.8952,-510.795 L 65.6734,-510.69
 L 65.4424,-510.608 L 65.2044,-510.548 L 64.9617,-510.512 L 64.7167,-510.5 z
M 63.26,-487.95 L 63.26,-490.972 L 63.1307,-491.067 L 62.9489,-491.232 L 62.7841,-491.414 L 62.638,-491.611
 L 62.5119,-491.822 L 62.407,-492.043 L 62.3243,-492.274 L 62.2647,-492.512 L 62.2287,-492.755 L 62.2167,-493
 L 62.2287,-493.245 L 62.2647,-493.488 L 62.3243,-493.726 L 62.407,-493.957 L 62.5119,-494.178 L 62.638,-494.389
 L 62.7841,-494.586 L 62.9489,-494.768 L 63.1307,-494.933 L 63.3277,-495.079 L 63.5382,-495.205 L 63.7599,-495.31
 L 63.991,-495.392 L 64.2289,-495.452 L 64.4716,-495.488 L 64.7167,-495.5 L 64.9617,-495.488 L 65.2044,-495.452
 L 65.4424,-495.392 L 65.6734,-495.31 L 65.8952,-495.205 L 66.1056,-495.079 L 66.3026,-494.933 L 66.4844,-494.768
 L 66.6492,-494.586 L 66.7953,-494.389 L 66.9215,-494.178 L 67.0264,-493.957 L 67.109,-493.726 L 67.1686,-493.488
 L 67.2046,-493.245 L 67.2167,-493 L 67.2046,-492.755 L 67.1686,-492.512 L 67.1075,-492.27 L 78.62,-492.27
 L 78.62,-487.95 z
M 64.4716,-470.512 L 64.2289,-470.548 L 63.991,-470.608 L 63.7599,-470.69 L 63.5382,-470.795 L 63.3277,-470.921
 L 63.1307,-471.067 L 62.9489,-471.232 L 62.7841,-471.414 L 62.638,-471.611 L 62.5119,-471.822 L 62.407,-472.043
 L 62.3243,-472.274 L 62.2647,-472.512 L 62.2287,-472.755 L 62.2167,-473 L 62.2287,-473.245 L 62.2647,-473.488
 L 62.3243,-473.726 L 62.407,-473.957 L 62.5119,-474.178 L 62.638,-474.389 L 62.7841,-474.586 L 62.9489,-474.768
 L 63.1307,-474.933 L 63.3277,-475.079 L 63.5382,-475.205 L 63.7599,-475.31 L 63.991,-475.392 L 64.2289,-475.452
 L 64.4716,-475.488 L 64.7167,-475.5 L 64.9617,-475.488 L 65.2044,-475.452 L 65.4424,-475.392 L 65.6734,-475.31
 L 65.8952,-475.205 L 66.1056,-475.079 L 66.3026,-474.933 L 66.4844,-474.768 L 66.6492,-474.586 L 66.7953,-474.389
 L 66.9215,-474.178 L 67.0264,-473.957 L 67.109,-473.726 L 67.1686,-473.488 L 67.2046,-473.245 L 67.2167,-473
 L 67.2046,-472.755 L 67.1686,-472.512 L 67.109,-472.274 L 67.0264,-472.043 L 66.9215,-471.822 L 66.7953,-471.611
 L 66.6492,-471.414 L 66.4844,-471.232 L 66.3026,-471.067 L 66.1056,-470.921 L 65.8952,-470.795 L 65.6734,-470.69
 L 65.4424,-470.608 L 65.2044,-470.548 L 64.9617,-470.512 L 64.7167,-470.5 z
M 64.4716,-450.512 L 64.2289,-450.548 L 63.991,-450.608 L 63.7599,-450.69 L 63.5382,-450.795 L 63.3277,-450.921
 L 63.1307,-451.067 L 62.9489,-451.232 L 62.7841,-451.414 L 62.638,-451.611 L 62.5119,-451.822 L 62.407,-452.043
 L 62.3243,-452.274 L 62.2647,-452.512 L 62.2287,-452.755 L 62.2167,-453 L 62.2287,-453.245 L 62.2647,-453.488
 L 62.3243,-453.726 L 62.407,-453.957 L 62.5119,-454.178 L 62.638,-454.389 L 62.7841,-454.586 L 62.9489,-454.768
 L 63.1307,-454.933 L 63.3277,-455.079 L 63.5382,-455.205 L 63.7599,-455.31 L 63.991,-455.392 L 64.2289,-455.452
 L 64.4716,-455.488 L 64.7167,-455.5 L 64.9617,-455.488 L 65.2044,-455.452 L 65.4424,-455.392 L 65.6734,-455.31
 L 65.8952,-455.205 L 66.1056,-455.079 L 66.3026,-454.933 L 66.4844,-454.768 L 66.6492,-454.586 L 66.7953,-454.389
 L 66.9215,-454.178 L 67.0264,-453.957 L 67.109,-453.726 L 67.1686,-453.488 L 67.2046,-453.245 L 67.2167,-453
 L 67.2046,-452.755 L 67.1686,-452.512 L 67.109,-452.274 L 67.0264,-452.043 L 66.9215,-451.822 L 66.7953,-451.611
 L 66.6492,-451.414 L 66.4844,-451.232 L 66.3026,-451.067 L 66.1056,-450.921 L 65.8952,-450.795 L 65.6734,-450.69
 L 65.4424,-450.608 L 65.2044,-450.548 L 64.9617,-450.512 L 64.7167,-450.5 z
M 64.4716,-430.512 L 64.2289,-430.548 L 63.991,-430.608 L 63.7599,-430.69 L 63.5382,-430.795 L 63.3277,-430.921
 L 63.1307,-431.067 L 62.9489,-431.232 L 62.7841,-431.414 L 62.638,-431.611 L 62.5119,-431.822 L 62.407,-432.043
 L 62.3243,-432.274 L 62.2647,-432.512 L 62.2287,-432.755 L 62.2167,-433 L 62.2287,-433.245 L 62.2647,-433.488
 L 62.3243,-433.726 L 62.407,-433.957 L 62.5119,-434.178 L 62.638,-434.389 L 62.7841,-434.586 L 62.9489,-434.768
 L 63.1307,-434.933 L 63.3277,-435.079 L 63.5382,-435.205 L 63.7599,-435.31 L 63.991,-435.392 L 64.2289,-435.452
 L 64.4716,-435.488 L 64.7167,-435.5 L 64.9617,-435.488 L 65.2044,-435.452 L 65.4424,-435.392 L 65.6734,-435.31
 L 65.8952,-435.205 L 66.1056,-435.079 L 66.3026,-434.933 L 66.4844,-434.768 L 66.6492,-434.586 L 66.7953,-434.389
 L 66.9215,-434.178 L 67.0264,-433.957 L 67.109,-433.726 L 67.1686,-433.488 L 67.2046,-433.245 L 67.2167,-433
 L 67.2046,-432.755 L 67.1686,-432.512 L 67.109,-432.274 L 67.0264,-432.043 L 66.9215,-431.822 L 66.7953,-431.611
 L 66.6492,-431.414 L 66.4844,-431.232 L 66.3026,-431.067 L 66.1056,-430.921 L 65.8952,-430.795 L 65.6734,-430.69
 L 65.4424,-430.608 L 65.2044,-430.548 L 64.9617,-430.512 L 64.7167,-430.5 z
M 64.4716,-410.512 L 64.2289,-410.548 L 63.991,-410.608 L 63.7599,-410.69 L 63.5382,-410.795 L 63.3277,-410.921
 L 63.1307,-411.067 L 62.9489,-411.232 L 62.7841,-411.414 L 62.638,-411.611 L 62.5119,-411.822 L 62.407,-412.043
 L 62.3243,-412.274 L 62.2647,-412.512 L 62.2287,-412.755 L 62.2167,-413 L 62.2287,-413.245 L 62.2647,-413.488
 L 62.3243,-413.726 L 62.407,-413.957 L 62.5119,-414.178 L 62.638,-414.389 L 62.7841,-414.586 L 62.9489,-414.768
 L 63.1307,-414.933 L 63.3277,-415.079 L 63.5382,-415.205 L 63.7599,-415.31 L 63.991,-415.392 L 64.2289,-415.452
 L 64.4716,-415.488 L 64.7167,-415.5 L 64.9617,-415.488 L 65.2044,-415.452 L 65.4424,-415.392 L 65.6734,-415.31
 L 65.8952,-415.205 L 66.1056,-415.079 L 66.3026,-414.933 L 66.4844,-414.768 L 66.6492,-414.586 L 66.7953,-414.389
 L 66.9215,-414.178 L 67.0264,-413.957 L 67.109,-413.726 L 67.1686,-413.488 L 67.2046,-413.245 L 67.2167,-413
 L 67.2046,-412.755 L 67.1686,-412.512 L 67.109,-412.274 L 67.0264,-412.043 L 66.9215,-411.822 L 66.7953,-411.611
 L 66.6492,-411.414 L 66.4844,-411.232 L 66.3026,-411.067 L 66.1056,-410.921 L 65.8952,-410.795 L 65.6734,-410.69
 L 65.4424,-410.608 L 65.2044,-410.548 L 64.9617,-410.512 L 64.7167,-410.5 z
M 64.4716,-390.512 L 64.2289,-390.548 L 63.991,-390.608 L 63.7599,-390.69 L 63.5382,-390.795 L 63.3277,-390.921
 L 63.1307,-391.067 L 62.9489,-391.232 L 62.7841,-391.414 L 62.638,-391.611 L 62.5119,-391.822 L 62.407,-392.043
 L 62.3243,-392.274 L 62.2647,-392.512 L 62.2287,-392.755 L 62.2167,-393 L 62.2287,-393.245 L 62.2647,-393.488
 L 62.3243,-393.726 L 62.407,-393.957 L 62.5119,-394.178 L 62.638,-394.389 L 62.7841,-394.586 L 62.9489,-394.768
 L 63.1307,-394.933 L 63.3277,-395.079 L 63.5382,-395.205 L 63.7599,-395.31 L 63.991,-395.392 L 64.2289,-395.452
 L 64.4716,-395.488 L 64.7167,-395.5 L 64.9617,-395.488 L 65.2044,-395.452 L 65.4424,-395.392 L 65.6734,-395.31
 L 65.8952,-395.205 L 66.1056,-395.079 L 66.3026,-394.933 L 66.4844,-394.768 L 66.6492,-394.586 L 66.7953,-394.389
 L 66.9215,-394.178 L 67.0264,-393.957 L 67.109,-393.726 L 67.1686,-393.488 L 67.2046,-393.245 L 67.2167,-393
 L 67.2046,-392.755 L 67.1686,-392.512 L 67.109,-392.274 L 67.0264,-392.043 L 66.9215,-391.822 L 66.7953,-391.611
 L 66.6492,-391.414 L 66.4844,-391.232 L 66.3026,-391.067 L 66.1056,-390.921 L 65.8952,-390.795 L 65.6734,-390.69
 L 65.4424,-390.608 L 65.2044,-390.548 L 64.9617,-390.512 L 64.7167,-390.5 z
M 63.26,-382.95 L 63.26,-387.27 L 78.62,-387.27 L 78.62,-382.95 z
M 64.4716,-370.512 L 64.2289,-370.548 L 63.991,-370.608 L 63.7599,-370.69 L 63.5382,-370.795 L 63.3277,-370.921
 L 63.1307,-371.067 L 62.9489,-371.232 L 62.7841,-371.414 L 62.638,-371.611 L 62.5119,-371.822 L 62.407,-372.043
 L 62.3243,-372.274 L 62.2647,-372.512 L 62.2287,-372.755 L 62.2167,-373 L 62.2287,-373.245 L 62.2647,-373.488
 L 62.3243,-373.726 L 62.407,-373.957 L 62.5119,-374.178 L 62.638,-374.389 L 62.7841,-374.586 L 62.9489,-374.768
 L 63.1307,-374.933 L 63.3277,-375.079 L 63.5382,-375.205 L 63.7599,-375.31 L 63.991,-375.392 L 64.2289,-375.452
 L 64.4716,-375.488 L 64.7167,-375.5 L 64.9617,-375.488 L 65.2044,-375.452 L 65.4424,-375.392 L 65.6734,-375.31
 L 65.8952,-375.205 L 66.1056,-375.079 L 66.3026,-374.933 L 66.4844,-374.768 L 66.6492,-374.586 L 66.7953,-374.389
 L 66.9215,-374.178 L 67.0264,-373.957 L 67.109,-373.726 L 67.1686,-373.488 L 67.2046,-373.245 L 67.2167,-373
 L 67.2046,-372.755 L 67.1686,-372.512 L 67.109,-372.274 L 67.0264,-372.043 L 66.9215,-371.822 L 66.7953,-371.611
 L 66.6492,-371.414 L 66.4844,-371.232 L 66.3026,-371.067 L 66.1056,-370.921 L 65.8952,-370.795 L 65.6734,-370.69
 L 65.4424,-370.608 L 65.2044,-370.548 L 64.9617,-370.512 L 64.7167,-370.5 z
M 64.4716,-350.512 L 64.2289,-350.548 L 63.991,-350.608 L 63.7599,-350.69 L 63.5382,-350.795 L 63.3277,-350.921
 L 63.1307,-351.067 L 62.9489,-351.232 L 62.7841,-351.414 L 62.638,-351.611 L 62.5119,-351.822 L 62.407,-352.043
 L 62.3243,-352.274 L 62.2647,-352.512 L 62.2287,-352.755 L 62.2167,-353 L 62.2287,-353.245 L 62.2647,-353.488
 L 62.3243,-353.726 L 62.407,-353.957 L 62.5119,-354.178 L 62.638,-354.389 L 62.7841,-354.586 L 62.9489,-354.768
 L 63.1307,-354.933 L 63.3277,-355.079 L 63.5382,-355.205 L 63.7599,-355.31 L 63.991,-355.392 L 64.2289,-355.452
 L 64.4716,-355.488 L 64.7167,-355.5 L 64.9617,-355.488 L 65.2044,-355.452 L 65.4424,-355.392 L 65.6734,-355.31
 L 65.8952,-355.205 L 66.1056,-355.079 L 66.3026,-354.933 L 66.4844,-354.768 L 66.6492,-354.586 L 66.7953,-354.389
 L 66.9215,-354.178 L 67.0264,-353.957 L 67.109,-353.726 L 67.1686,-353.488 L 67.2046,-353.245 L 67.2167,-353
 L 67.2046,-352.755 L 67.1686,-352.512 L 67.109,-352.274 L 67.0264,-352.043 L 66.9215,-351.822 L 66.7953,-351.611
 L 66.6492,-351.414 L 66.4844,-351.232 L 66.3026,-351.067 L 66.1056,-350.921 L 65.8952,-350.795 L 65.6734,-350.69
 L 65.4424,-350.608 L 65.2044,-350.548 L 64.9617,-350.512 L 64.7167,-350.5 z
M 64.4716,-330.512 L 64.2289,-330.548 L 63.991,-330.608 L 63.7599,-330.69 L 63.5382,-330.795 L 63.3277,-330.921
 L 63.1307,-331.067 L 62.9489,-331.232 L 62.7841,-331.414 L 62.638,-331.611 L 62.5119,-331.822 L 62.407,-332.043
 L 62.3243,-332.274 L 62.2647,-332.512 L 62.2287,-332.755 L 62.2167,-333 L 62.2287,-333.245 L 62.2647,-333.488
 L 62.3243,-333.726 L 62.407,-333.957 L 62.5119,-334.178 L 62.638,-334.389 L 62.7841,-334.586 L 62.9489,-334.768
 L 63.1307,-334.933 L 63.3277,-335.079 L 63.5382,-335.205 L 63.7599,-335.31 L 63.991,-335.392 L 64.2289,-335.452
 L 64.4716,-335.488 L 64.7167,-335.5 L 64.9617,-335.488 L 65.2044,-335.452 L 65.4424,-335.392 L 65.6734,-335.31
 L 65.8952,-335.205 L 66.1056,-335.079 L 66.3026,-334.933 L 66.4844,-334.768 L 66.6492,-334.586 L 66.7953,-334.389
 L 66.9215,-334.178 L 67.0264,-333.957 L 67.109,-333.726 L 67.1686,-333.488 L 67.2046,-333.245 L 67.2167,-333
 L 67.2046,-332.755 L 67.1686,-332.512 L 67.109,-332.274 L 67.0264,-332.043 L 66.9215,-331.822 L 66.7953,-331.611
 L 66.6492,-331.414 L 66.4844,-331.232 L 66.3026,-331.067 L 66.1056,-330.921 L 65.8952,-330.795 L 65.6734,-330.69
 L 65.4424,-330.608 L 65.2044,-330.548 L 64.9617,-330.512 L 64.7167,-330.5 z
M 64.4716,-310.512 L 64.2289,-310.548 L 63.991,-310.608 L 63.7599,-310.69 L 63.5382,-310.795 L 63.3277,-310.921
 L 63.1307,-311.067 L 62.9489,-311.232 L 62.7841,-311.414 L 62.638,-311.611 L 62.5119,-311.822 L 62.407,-312.043
 L 62.3243,-312.274 L 62.2647,-312.512 L 62.2287,-312.755 L 62.2167,-313 L 62.2287,-313.245 L 62.2647,-313.488
 L 62.3243,-313.726 L 62.407,-313.957 L 62.5119,-314.178 L 62.638,-314.389 L 62.7841,-314.586 L 62.9489,-314.768
 L 63.1307,-314.933 L 63.3277,-315.079 L 63.5382,-315.205 L 63.7599,-315.31 L 63.991,-315.392 L 64.2289,-315.452
 L 64.4716,-315.488 L 64.7167,-315.5 L 64.9617,-315.488 L 65.2044,-315.452 L 65.4424,-315.392 L 65.6734,-315.31
 L 65.8952,-315.205 L 66.1056,-315.079 L 66.3026,-314.933 L 66.4844,-314.768 L 66.6492,-314.586 L 66.7953,-314.389
 L 66.9215,-314.178 L 67.0264,-313.957 L 67.109,-313.726 L 67.1686,-313.488 L 67.2046,-313.245 L 67.2167,-313
 L 67.2046,-312.755 L 67.1686,-312.512 L 67.109,-312.274 L 67.0264,-312.043 L 66.9215,-311.822 L 66.7953,-311.611
 L 66.6492,-311.414 L 66.4844,-311.232 L 66.3026,-311.067 L 66.1056,-310.921 L 65.8952,-310.795 L 65.6734,-310.69
 L 65.4424,-310.608 L 65.2044,-310.548 L 64.9617,-310.512 L 64.7167,-310.5 z
M 64.4716,-290.512 L 64.2289,-290.548 L 63.991,-290.608 L 63.7599,-290.69 L 63.5382,-290.795 L 63.3277,-290.921
 L 63.1307,-291.067 L 62.9489,-291.232 L 62.7841,-291.414 L 62.638,-291.611 L 62.5119,-291.822 L 62.407,-292.043
 L 62.3243,-292.274 L 62.2647,-292.512 L 62.2287,-292.755 L 62.2167,-293 L 62.2287,-293.245 L 62.2647,-293.488
 L 62.3243,-293.726 L 62.407,-293.957 L 62.5119,-294.178 L 62.638,-294.389 L 62.7841,-294.586 L 62.9489,-294.768
 L 63.1307,-294.933 L 63.3277,-295.079 L 63.5382,-295.205 L 63.7599,-295.31 L 63.991,-295.392 L 64.2289,-295.452
 L 64.4716,-295.488 L 64.7167,-295.5 L 64.9617,-295.488 L 65.2044,-295.452 L 65.4424,-295.392 L 65.6734,-295.31
 L 65.8952,-295.205 L 66.1056,-295.079 L 66.3026,-294.933 L 66.4844,-294.768 L 66.6492,-294.586 L 66.7953,-294.389
 L 66.9215,-294.178 L 67.0264,-293.957 L 67.109,-293.726 L 67.1686,-293.488 L 67.2046,-293.245 L 67.2167,-293
 L 67.2046,-292.755 L 67.1686,-292.512 L 67.109,-292.274 L 67.0264,-292.043 L 66.9215,-291.822 L 66.7953,-291.611
 L 66.6492,-291.414 L 66.4844,-291.232 L 66.3026,-291.067 L 66.1056,-290.921 L 65.8952,-290.795 L 65.6734,-290.69
 L 65.4424,-290.608 L 65.2044,-290.548 L 64.9617,-290.512 L 64.7167,-290.5 z
M 63.26,-277.95 L 63.26,-282.27 L 78.62,-282.27 L 78.62,-277.95 z
M 64.4716,-270.512 L 64.2289,-270.548 L 63.991,-270.608 L 63.7599,-270.69 L 63.5382,-270.795 L 63.3277,-270.921
 L 63.1307,-271.067 L 62.9489,-271.232 L 62.7841,-271.414 L 62.638,-271.611 L 62.5119,-271.822 L 62.407,-272.043
 L 62.3243,-272.274 L 62.2647,-272.512 L 62.2287,-272.755 L 62.2167,-273 L 62.2287,-273.245 L 62.2647,-273.488
 L 62.3243,-273.726 L 62.407,-273.957 L 62.5119,-274.178 L 62.638,-274.389 L 62.7841,-274.586 L 62.9489,-274.768
 L 63.1307,-274.933 L 63.3277,-275.079 L 63.5382,-275.205 L 63.7599,-275.31 L 63.991,-275.392 L 64.2289,-275.452
 L 64.4716,-275.488 L 64.7167,-275.5 L 64.9617,-275.488 L 65.2044,-275.452 L 65.4424,-275.392 L 65.6734,-275.31
 L 65.8952,-275.205 L 66.1056,-275.079 L 66.3026,-274.933 L 66.4844,-274.768 L 66.6492,-274.586 L 66.7953,-274.389
 L 66.9215,-274.178 L 67.0264,-273.957 L 67.109,-273.726 L 67.1686,-273.488 L 67.2046,-273.245 L 67.2167,-273
 L 67.2046,-272.755 L 67.1686,-272.512 L 67.109,-272.274 L 67.0264,-272.043 L 66.9215,-271.822 L 66.7953,-271.611
 L 66.6492,-271.414 L 66.4844,-271.232 L 66.3026,-271.067 L 66.1056,-270.921 L 65.8952,-270.795 L 65.6734,-270.69
 L 65.4424,-270.608 L 65.2044,-270.548 L 64.9617,-270.512 L 64.7167,-270.5 z
M 64.4716,-250.512 L 64.2289,-250.548 L 63.991,-250.608 L 63.7599,-250.69 L 63.5382,-250.795 L 63.3277,-250.921
 L 63.1307,-251.067 L 62.9489,-251.232 L 62.7841,-251.414 L 62.638,-251.611 L 62.5119,-251.822 L 62.407,-252.043
 L 62.3243,-252.274 L 62.2647,-252.512 L 62.2287,-252.755 L 62.2167,-253 L 62.2287,-253.245 L 62.2647,-253.488
 L 62.3243,-253.726 L 62.407,-253.957 L 62.5119,-254.178 L 62.638,-254.389 L 62.7841,-254.586 L 62.9489,-254.768
 L 63.1307,-254.933 L 63.3277,-255.079 L 63.5382,-255.205 L 63.7599,-255.31 L 63.991,-255.392 L 64.2289,-255.452
 L 64.4716,-255.488 L 64.7167,-255.5 L 64.9617,-255.488 L 65.2044,-255.452 L 65.4424,-255.392 L 65.6734,-255.31
 L 65.8952,-255.205 L 66.1056,-255.079 L 66.3026,-254.933 L 66.4844,-254.768 L 66.6492,-254.586 L 66.7953,-254.389
 L 66.9215,-254.178 L 67.0264,-253.957 L 67.109,-253.726 L 67.1686,-253.488 L 67.2046,-253.245 L 67.2167,-253
 L 67.2046,-252.755 L 67.1686,-252.512 L 67.109,-252.274 L 67.0264,-252.043 L 66.9215,-251.822 L 66.7953,-251.611
 L 66.6492,-251.414 L 66.4844,-251.232 L 66.3026,-251.067 L 66.1056,-250.921 L 65.8952,-250.795 L 65.6734,-250.69
 L 65.4424,-250.608 L 65.2044,-250.548 L 64.9617,-250.512 L 64.7167,-250.5 z
M 64.4716,-230.512 L 64.2289,-230.548 L 63.991,-230.608 L 63.7599,-230.69 L 63.5382,-230.795 L 63.3277,-230.921
 L 63.1307,-231.067 L 62.9489,-231.232 L 62.7841,-231.414 L 62.638,-231.611 L 62.5119,-231.822 L 62.407,-232.043
 L 62.3243,-232.274 L 62.2647,-232.512 L 62.2287,-232.755 L 62.2167,-233 L 62.2287,-233.245 L 62.2647,-233.488
 L 62.3243,-233.726 L 62.407,-233.957 L 62.5119,-234.178 L 62.638,-234.389 L 62.7841,-234.586 L 62.9489,-234.768
 L 63.1307,-234.933 L 63.3277,-235.079 L 63.5382,-235.205 L 63.7599,-235.31 L 63.991,-235.392 L 64.2289,-235.452
 L 64.4716,-235.488 L 64.7167,-235.5 L 64.9617,-235.488 L 65.2044,-235.452 L 65.4424,-235.392 L 65.6734,-235.31
 L 65.8952,-235.205 L 66.1056,-235.079 L 66.3026,-234.933 L 66.4844,-234.768 L 66.6492,-234.586 L 66.7953,-234.389
 L 66.9215,-234.178 L 67.0264,-233.957 L 67.109,-233.726 L 67.1686,-233.488 L 67.2046,-233.245 L 67.2167,-233
 L 67.2046,-232.755 L 67.1686,-232.512 L 67.109,-232.274 L 67.0264,-232.043 L 66.9215,-231.822 L 66.7953,-231.611
 L 66.6492,-231.414 L 66.4844,-231.232 L 66.3026,-231.067 L 66.1056,-230.921 L 65.8952,-230.795 L 65.6734,-230.69
 L 65.4424,-230.608 L 65.2044,-230.548 L 64.9617,-230.512 L 64.7167,-230.5 z
M 64.4716,-210.512 L 64.2289,-210.548 L 63.991,-210.608 L 63.7599,-210.69 L 63.5382,-210.795 L 63.3277,-210.921
 L 63.1307,-211.067 L 62.9489,-211.232 L 62.7841,-211.414 L 62.638,-211.611 L 62.5119,-211.822 L 62.407,-212.043
 L 62.3243,-212.274 L 62.2647,-212.512 L 62.2287,-212.755 L 62.2167,-213 L 62.2287,-213.245 L 62.2647,-213.488
 L 62.3243,-213.726 L 62.407,-213.957 L 62.5119,-214.178 L 62.638,-214.389 L 62.7841,-214.586 L 62.9489,-214.768
 L 63.1307,-214.933 L 63.3277,-215.079 L 63.5382,-215.205 L 63.7599,-215.31 L 63.991,-215.392 L 64.2289,-215.452
 L 64.4716,-215.488 L 64.7167,-215.5 L 64.9617,-215.488 L 65.2044,-215.452 L 65.4424,-215.392 L 65.6734,-215.31
 L 65.8952,-215.205 L 66.1056,-215.079 L 66.3026,-214.933 L 66.4844,-214.768 L 66.6492,-214.586 L 66.7953,-214.389
 L 66.9215,-214.178 L 67.0264,-213.957 L 67.109,-213.726 L 67.1686,-213.488 L 67.2046,-213.245 L 67.2167,-213
 L 67.2046,-212.755 L 67.1686,-212.512 L 67.109,-212.274 L 67.0264,-212.043 L 66.9215,-211.822 L 66.7953,-211.611
 L 66.6492,-211.414 L 66.4844,-211.232 L 66.3026,-211.067 L 66.1056,-210.921 L 65.8952,-210.795 L 65.6734,-210.69
 L 65.4424,-210.608 L 65.2044,-210.548 L 64.9617,-210.512 L 64.7167,-210.5 z
M 64.4716,-190.512 L 64.2289,-190.548 L 63.991,-190.608 L 63.7599,-190.69 L 63.5382,-190.795 L 63.3277,-190.921
 L 63.1307,-191.067 L 62.9489,-191.232 L 62.7841,-191.414 L 62.638,-191.611 L 62.5119,-191.822 L 62.407,-192.043
 L 62.3243,-192.274 L 62.2647,-192.512 L 62.2287,-192.755 L 62.2167,-193 L 62.2287,-193.245 L 62.2647,-193.488
 L 62.3243,-193.726 L 62.407,-193.957 L 62.5119,-194.178 L 62.638,-194.389 L 62.7841,-194.586 L 62.9489,-194.768
 L 63.1307,-194.933 L 63.3277,-195.079 L 63.5382,-195.205 L 63.7599,-195.31 L 63.991,-195.392 L 64.2289,-195.452
 L 64.4716,-195.488 L 64.7167,-195.5 L 64.9617,-195.488 L 65.2044,-195.452 L 65.4424,-195.392 L 65.6734,-195.31
 L 65.8952,-195.205 L 66.1056,-195.079 L 66.3026,-194.933 L 66.4844,-194.768 L 66.6492,-194.586 L 66.7953,-194.389
 L 66.9215,-194.178 L 67.0264,-193.957 L 67.109,-193.726 L 67.1686,-193.488 L 67.2046,-193.245 L 67.2167,-193
 L 67.2046,-192.755 L 67.1686,-192.512 L 67.109,-192.274 L 67.0264,-192.043 L 66.9215,-191.822 L 66.7953,-191.611
 L 66.6492,-191.414 L 66.4844,-191.232 L 66.3026,-191.067 L 66.1056,-190.921 L 65.8952,-190.795 L 65.6734,-190.69
 L 65.4424,-190.608 L 65.2044,-190.548 L 64.9617,-190.512 L 64.7167,-190.5 z
M 63.26,-172.95 L 63.26,-177.27 L 78.62,-177.27 L 78.62,-172.95 z
M 202,-197.7 L 202.031,-197.7 L 202.396,-201.6 L 203.707,-205.8 L 205.853,-210 L 208.699,-214.2
 L 212.067,-218.4 L 215.745,-222.6 L 219.502,-226.8 L 223.101,-231 L 226.317,-235.2 L 228.948,-239.4
 L 230.828,-243.6 L 231.839,-247.8 L 231.918,-252 L 231.059,-256.2 L 229.317,-260.4 L 226.801,-264.6
 L 223.67,-268.8 L 220.119,-273 L 216.372,-277.2 L 212.665,-281.4 L 209.23,-285.6 L 206.283,-289.8
 L 204.01,-294 L 202.553,-298.2 L 202.003,-302.4 L 202.396,-306.6 L 203.707,-310.8 L 205.853,-315
 L 208.699,-319.2 L 212.067,-323.4 L 215.745,-327.6 L 219.502,-331.8 L 223.101,-336 L 226.317,-340.2
 L 228.948,-344.4 L 230.828,-348.6 L 231.839,-352.8 L 231.918,-357 L 231.059,-361.2 L 229.317,-365.4
 L 226.801,-369.6 L 223.67,-373.8 L 220.119,-378 L 216.372,-382.2 L 212.665,-386.4 L 209.23,-390.6
 L 206.283,-394.8 L 204.01,-399 L 202.553,-403.2 L 202.003,-407.4 L 202.396,-411.6 L 203.707,-415.8
 L 205.853,-420 L 208.699,-424.2 L 212.067,-428.4 L 215.745,-432.6 L 219.502,-436.8 L 223.101,-441
 L 226.317,-445.2 L 228.948,-449.4 L 230.828,-453.6 L 231.839,-457.8 L 231.918,-462 L 231.059,-466.2
 L 229.317,-470.4 L 226.801,-474.6 L 223.67,-478.8 L 220.119,-483 L 216.372,-487.2 L 212.665,-491.4
 L 209.23,-495.6 L 206.283,-499.8 L 204.01,-504 L 202.553,-508.2 L 202.003,-512.4 L 202.396,-516.6
 L 203.707,-520.8 L 205.853,-525 L 208.699,-529.2 L 212.067,-533.4 L 215.745,-537.6 L 219.502,-541.8
 L 223.101,-546 L 226.317,-550.2 L 228.948,-554.4 L 230.828,-558.6 L 231.839,-562.8 L 231.918,-567
 L 231.059,-571.2 L 229.317,-575.4 L 226.801,-579.6 L 223.67,-583.8 L 220.119,-588 L 159.27,-588
 L 159.27,-566.95 L 155,-566.95 L 155,-546.05 L 159.27,-546.05 L 159.27,-524.95 L 155,-524.95
 L 155,-504.05 L 159.27,-504.05 L 159.27,-482.95 L 155,-482.95 L 155,-462.05 L 159.27,-462.05
 L 159.27,-440.95 L 155,-440.95 L 155,-420.05 L 159.27,-420.05 L 159.27,-398.95 L 155,-398.95
 L 155,-378.05 L 159.27,-378.05 L 159.27,-356.95 L 155,-356.95 L 155,-336.05 L 159.27,-336.05
 L 159.27,-314.95 L 155,-314.95 L 155,-294.05 L 159.27,-294.05 L 159.27,-272.95 L 155,-272.95
 L 155,-252.05 L 159.27,-252.05 L 159.27,-230.95 L 155,-230.95 L 155,-210.05 L 159.27,-210.05
 L 159.27,-188.95 L 155,-188.95 L 155,-168.05 L 159.27,-168.05 L 159.27,-168 L 202,-168
 z
M 168.615,-578.73 L 168.615,-583.05 L 178.16,-583.05 L 178.16,-578.73 z
M 187.505,-578.73 L 187.505,-583.05 L 197.05,-583.05 L 197.05,-578.73 z
M 218.22,-559.78 L 218.22,-571.78 L 222.44,-571.78 L 222.44,-559.78 z
M 187.505,-473.73 L 187.505,-478.05 L 197.05,-478.05 L 197.05,-473.73 z
M 168.615,-473.73 L 168.615,-478.05 L 178.16,-478.05 L 178.16,-473.73 z
M 218.22,-454.78 L 218.22,-466.78 L 222.44,-466.78 L 222.44,-454.78 z
M 187.505,-368.73 L 187.505,-373.05 L 197.05,-373.05 L 197.05,-368.73 z
M 168.615,-368.73 L 168.615,-373.05 L 178.16,-373.05 L 178.16,-368.73 z
M 218.22,-349.78 L 218.22,-361.78 L 222.44,-361.78 L 222.44,-349.78 z
M 168.615,-263.73 L 168.615,-268.05 L 178.16,-268.05 L 178.16,-263.73 z
M 187.505,-263.73 L 187.505,-268.05 L 197.05,-268.05 L 197.05,-263.73 z
M 218.22,-244.78 L 218.22,-256.78 L 222.44,-256.78 L 222.44,-244.78 z
M 148.1,-188.95 L 143.83,-188.95 L 143.83,-210.05 L 148.1,-210.05 L 148.1,-230.95 L 143.83,-230.95
 L 143.83,-252.05 L 148.1,-252.05 L 148.1,-272.95 L 143.83,-272.95 L 143.83,-294.05 L 148.1,-294.05
 L 148.1,-314.95 L 143.83,-314.95 L 143.83,-336.05 L 148.1,-336.05 L 148.1,-356.95 L 143.83,-356.95
 L 143.83,-378.05 L 148.1,-378.05 L 148.1,-398.95 L 143.83,-398.95 L 143.83,-420.05 L 148.1,-420.05
 L 148.1,-440.95 L 143.83,-440.95 L 143.83,-462.05 L 148.1,-462.05 L 148.1,-482.95 L 143.83,-482.95
 L 143.83,-504.05 L 148.1,-504.05 L 148.1,-524.95 L 143.83,-524.95 L 143.83,-546.05 L 148.1,-546.05
 L 148.1,-566.95 L 143.83,-566.95 L 143.83,-588 L 98.1,-588 L 98.1,-492.27 L 98.15,-492.27
 L 98.15,-487.95 L 98.1,-487.95 L 98.1,-387.27 L 98.15,-387.27 L 98.15,-382.95 L 98.1,-382.95
 L 98.1,-282.27 L 98.15,-282.27 L 98.15,-277.95 L 98.1,-277.95 L 98.1,-177.27 L 98.15,-177.27
 L 98.15,-172.95 L 98.1,-172.95 L 98.1,-168 L 148.1,-168 z
M 114.522,-570.512 L 114.279,-570.548 L 114.041,-570.608 L 113.81,-570.69 L 113.588,-570.795 L 113.378,-570.921
 L 113.181,-571.067 L 112.999,-571.232 L 112.834,-571.414 L 112.688,-571.611 L 112.562,-571.822 L 112.457,-572.043
 L 112.374,-572.274 L 112.315,-572.512 L 112.279,-572.755 L 112.267,-573 L 112.279,-573.245 L 112.315,-573.488
 L 112.374,-573.726 L 112.457,-573.957 L 112.562,-574.178 L 112.688,-574.389 L 112.834,-574.586 L 112.999,-574.768
 L 113.181,-574.933 L 113.378,-575.079 L 113.588,-575.205 L 113.81,-575.31 L 114.041,-575.392 L 114.279,-575.452
 L 114.522,-575.488 L 114.767,-575.5 L 115.012,-575.488 L 115.254,-575.452 L 115.492,-575.392 L 115.723,-575.31
 L 115.945,-575.205 L 116.156,-575.079 L 116.353,-574.933 L 116.534,-574.768 L 116.699,-574.586 L 116.845,-574.389
 L 116.971,-574.178 L 117.076,-573.957 L 117.159,-573.726 L 117.219,-573.488 L 117.255,-573.245 L 117.267,-573
 L 117.255,-572.755 L 117.219,-572.512 L 117.159,-572.274 L 117.076,-572.043 L 116.971,-571.822 L 116.845,-571.611
 L 116.699,-571.414 L 116.534,-571.232 L 116.353,-571.067 L 116.156,-570.921 L 115.945,-570.795 L 115.723,-570.69
 L 115.492,-570.608 L 115.254,-570.548 L 115.012,-570.512 L 114.767,-570.5 z
M 114.522,-550.512 L 114.279,-550.548 L 114.041,-550.608 L 113.81,-550.69 L 113.588,-550.795 L 113.378,-550.921
 L 113.181,-551.067 L 112.999,-551.232 L 112.834,-551.414 L 112.688,-551.611 L 112.562,-551.822 L 112.457,-552.043
 L 112.374,-552.274 L 112.315,-552.512 L 112.279,-552.755 L 112.267,-553 L 112.279,-553.245 L 112.315,-553.488
 L 112.374,-553.726 L 112.457,-553.957 L 112.562,-554.178 L 112.688,-554.389 L 112.834,-554.586 L 112.999,-554.768
 L 113.181,-554.933 L 113.378,-555.079 L 113.588,-555.205 L 113.81,-555.31 L 114.041,-555.392 L 114.279,-555.452
 L 114.522,-555.488 L 114.767,-555.5 L 115.012,-555.488 L 115.254,-555.452 L 115.492,-555.392 L 115.723,-555.31
 L 115.945,-555.205 L 116.156,-555.079 L 116.353,-554.933 L 116.534,-554.768 L 116.699,-554.586 L 116.845,-554.389
 L 116.971,-554.178 L 117.076,-553.957 L 117.159,-553.726 L 117.219,-553.488 L 117.255,-553.245 L 117.267,-553
 L 117.255,-552.755 L 117.219,-552.512 L 117.159,-552.274 L 117.076,-552.043 L 116.971,-551.822 L 116.845,-551.611
 L 116.699,-551.414 L 116.534,-551.232 L 116.353,-551.067 L 116.156,-550.921 L 115.945,-550.795 L 115.723,-550.69
 L 115.492,-550.608 L 115.254,-550.548 L 115.012,-550.512 L 114.767,-550.5 z
M 114.522,-530.512 L 114.279,-530.548 L 114.041,-530.608 L 113.81,-530.69 L 113.588,-530.795 L 113.378,-530.921
 L 113.181,-531.067 L 112.999,-531.232 L 112.834,-531.414 L 112.688,-531.611 L 112.562,-531.822 L 112.457,-532.043
 L 112.374,-532.274 L 112.315,-532.512 L 112.279,-532.755 L 112.267,-533 L 112.279,-533.245 L 112.315,-533.488
 L 112.374,-533.726 L 112.457,-533.957 L 112.562,-534.178 L 112.688,-534.389 L 112.834,-534.586 L 112.999,-534.768
 L 113.181,-534.933 L 113.378,-535.079 L 113.588,-535.205 L 113.81,-535.31 L 114.041,-535.392 L 114.279,-535.452
 L 114.522,-535.488 L 114.767,-535.5 L 115.012,-535.488 L 115.254,-535.452 L 115.492,-535.392 L 115.723,-535.31
 L 115.945,-535.205 L 116.156,-535.079 L 116.353,-534.933 L 116.534,-534.768 L 116.699,-534.586 L 116.845,-534.389
 L 116.971,-534.178 L 117.076,-533.957 L 117.159,-533.726 L 117.219,-533.488 L 117.255,-533.245 L 117.267,-533
 L 117.255,-532.755 L 117.219,-532.512 L 117.159,-532.274 L 117.076,-532.043 L 116.971,-531.822 L 116.845,-531.611
 L 116.699,-531.414 L 116.534,-531.232 L 116.353,-531.067 L 116.156,-530.921 L 115.945,-530.795 L 115.723,-530.69
 L 115.492,-530.608 L 115.254,-530.548 L 115.012,-530.512 L 114.767,-530.5 z
M 114.522,-510.512 L 114.279,-510.548 L 114.041,-510.608 L 113.81,-510.69 L 113.588,-510.795 L 113.378,-510.921
 L 113.181,-511.067 L 112.999,-511.232 L 112.834,-511.414 L 112.688,-511.611 L 112.562,-511.822 L 112.457,-512.043
 L 112.374,-512.274 L 112.315,-512.512 L 112.279,-512.755 L 112.267,-513 L 112.279,-513.245 L 112.315,-513.488
 L 112.374,-513.726 L 112.457,-513.957 L 112.562,-514.178 L 112.688,-514.389 L 112.834,-514.586 L 112.999,-514.768
 L 113.181,-514.933 L 113.378,-515.079 L 113.588,-515.205 L 113.81,-515.31 L 114.041,-515.392 L 114.279,-515.452
 L 114.522,-515.488 L 114.767,-515.5 L 115.012,-515.488 L 115.254,-515.452 L 115.492,-515.392 L 115.723,-515.31
 L 115.945,-515.205 L 116.156,-515.079 L 116.353,-514.933 L 116.534,-514.768 L 116.699,-514.586 L 116.845,-514.389
 L 116.971,-514.178 L 117.076,-513.957 L 117.159,-513.726 L 117.219,-513.488 L 117.255,-513.245 L 117.267,-513
 L 117.255,-512.755 L 117.219,-512.512 L 117.159,-512.274 L 117.076,-512.043 L 116.971,-511.822 L 116.845,-511.611
 L 116.699,-511.414 L 116.534,-511.232 L 116.353,-511.067 L 116.156,-510.921 L 115.945,-510.795 L 115.723,-510.69
 L 115.492,-510.608 L 115.254,-510.548 L 115.012,-510.512 L 114.767,-510.5 z
M 113.31,-487.95 L 113.31,-490.972 L 113.181,-491.067 L 112.999,-491.232 L 112.834,-491.414 L 112.688,-491.611
 L 112.562,-491.822 L 112.457,-492.043 L 112.374,-492.274 L 112.315,-492.512 L 112.279,-492.755 L 112.267,-493
 L 112.279,-493.245 L 112.315,-493.488 L 112.374,-493.726 L 112.457,-493.957 L 112.562,-494.178 L 112.688,-494.389
 L 112.834,-494.586 L 112.999,-494.768 L 113.181,-494.933 L 113.378,-495.079 L 113.588,-495.205 L 113.81,-495.31
 L 114.041,-495.392 L 114.279,-495.452 L 114.522,-495.488 L 114.767,-495.5 L 115.012,-495.488 L 115.254,-495.452
 L 115.492,-495.392 L 115.723,-495.31 L 115.945,-495.205 L 116.156,-495.079 L 116.353,-494.933 L 116.534,-494.768
 L 116.699,-494.586 L 116.845,-494.389 L 116.971,-494.178 L 117.076,-493.957 L 117.159,-493.726 L 117.219,-493.488
 L 117.255,-493.245 L 117.267,-493 L 117.255,-492.755 L 117.219,-492.512 L 117.157,-492.27 L 128.67,-492.27
 L 128.67,-487.95 z
M 114.522,-470.512 L 114.279,-470.548 L 114.041,-470.608 L 113.81,-470.69 L 113.588,-470.795 L 113.378,-470.921
 L 113.181,-471.067 L 112.999,-471.232 L 112.834,-471.414 L 112.688,-471.611 L 112.562,-471.822 L 112.457,-472.043
 L 112.374,-472.274 L 112.315,-472.512 L 112.279,-472.755 L 112.267,-473 L 112.279,-473.245 L 112.315,-473.488
 L 112.374,-473.726 L 112.457,-473.957 L 112.562,-474.178 L 112.688,-474.389 L 112.834,-474.586 L 112.999,-474.768
 L 113.181,-474.933 L 113.378,-475.079 L 113.588,-475.205 L 113.81,-475.31 L 114.041,-475.392 L 114.279,-475.452
 L 114.522,-475.488 L 114.767,-475.5 L 115.012,-475.488 L 115.254,-475.452 L 115.492,-475.392 L 115.723,-475.31
 L 115.945,-475.205 L 116.156,-475.079 L 116.353,-474.933 L 116.534,-474.768 L 116.699,-474.586 L 116.845,-474.389
 L 116.971,-474.178 L 117.076,-473.957 L 117.159,-473.726 L 117.219,-473.488 L 117.255,-473.245 L 117.267,-473
 L 117.255,-472.755 L 117.219,-472.512 L 117.159,-472.274 L 117.076,-472.043 L 116.971,-471.822 L 116.845,-471.611
 L 116.699,-471.414 L 116.534,-471.232 L 116.353,-471.067 L 116.156,-470.921 L 115.945,-470.795 L 115.723,-470.69
 L 115.492,-470.608 L 115.254,-470.548 L 115.012,-470.512 L 114.767,-470.5 z
M 114.522,-450.512 L 114.279,-450.548 L 114.041,-450.608 L 113.81,-450.69 L 113.588,-450.795 L 113.378,-450.921
 L 113.181,-451.067 L 112.999,-451.232 L 112.834,-451.414 L 112.688,-451.611 L 112.562,-451.822 L 112.457,-452.043
 L 112.374,-452.274 L 112.315,-452.512 L 112.279,-452.755 L 112.267,-453 L 112.279,-453.245 L 112.315,-453.488
 L 112.374,-453.726 L 112.457,-453.957 L 112.562,-454.178 L 112.688,-454.389 L 112.834,-454.586 L 112.999,-454.768
 L 113.181,-454.933 L 113.378,-455.079 L 113.588,-455.205 L 113.81,-455.31 L 114.041,-455.392 L 114.279,-455.452
 L 114.522,-455.488 L 114.767,-455.5 L 115.012,-455.488 L 115.254,-455.452 L 115.492,-455.392 L 115.723,-455.31
 L 115.945,-455.205 L 116.156,-455.079 L 116.353,-454.933 L 116.534,-454.768 L 116.699,-454.586 L 116.845,-454.389
 L 116.971,-454.178 L 117.076,-453.957 L 117.159,-453.726 L 117.219,-453.488 L 117.255,-453.245 L 117.267,-453
 L 117.255,-452.755 L 117.219,-452.512 L 117.159,-452.274 L 117.076,-452.043 L 116.971,-451.822 L 116.845,-451.611
 L 116.699,-451.414 L 116.534,-451.232 L 116.353,-451.067 L 116.156,-450.921 L 115.945,-450.795 L 115.723,-450.69
 L 115.492,-450.608 L 115.254,-450.548 L 115.012,-450.512 L 114.767,-450.5 z
M 114.522,-430.512 L 114.279,-430.548 L 114.041,-430.608 L 113.81,-430.69 L 113.588,-430.795 L 113.378,-430.921
 L 113.181,-431.067 L 112.999,-431.232 L 112.834,-431.414 L 112.688,-431.611 L 112.562,-431.822 L 112.457,-432.043
 L 112.374,-432.274 L 112.315,-432.512 L 112.279,-432.755 L 112.267,-433 L 112.279,-433.245 L 112.315,-433.488
 L 112.374,-433.726 L 112.457,-433.957 L 112.562,-434.178 L 112.688,-434.389 L 112.834,-434.586 L 112.999,-434.768
 L 113.181,-434.933 L 113.378,-435.079 L 113.588,-435.205 L 113.81,-435.31 L 114.041,-435.392 L 114.279,-435.452
 L 114.522,-435.488 L 114.767,-435.5 L 115.012,-435.488 L 115.254,-435.452 L 115.492,-435.392 L 115.723,-435.31
 L 115.945,-435.205 L 116.156,-435.079 L 116.353,-434.933 L 116.534,-434.768 L 116.699,-434.586 L 116.845,-434.389
 L 116.971,-434.178 L 117.076,-433.957 L 117.159,-433.726 L 117.219,-433.488 L 117.255,-433.245 L 117.267,-433
 L 117.255,-432.755 L 117.219,-432.512 L 117.159,-432.274 L 117.076,-432.043 L 116.971,-431.822 L 116.845,-431.611
 L 116.699,-431.414 L 116.534,-431.232 L 116.353,-431.067 L 116.156,-430.921 L 115.945,-430.795 L 115.723,-430.69
 L 115.492,-430.608 L 115.254,-430.548 L 115.012,-430.512 L 114.767,-430.5 z
M 114.522,-410.512 L 114.279,-410.548 L 114.041,-410.608 L 113.81,-410.69 L 113.588,-410.795 L 113.378,-410.921
 L 113.181,-411.067 L 112.999,-411.232 L 112.834,-411.414 L 112.688,-411.611 L 112.562,-411.822 L 112.457,-412.043
 L 112.374,-412.274 L 112.315,-412.512 L 112.279,-412.755 L 112.267,-413 L 112.279,-413.245 L 112.315,-413.488
 L 112.374,-413.726 L 112.457,-413.957 L 112.562,-414.178 L 112.688,-414.389 L 112.834,-414.586 L 112.999,-414.768
 L 113.181,-414.933 L 113.378,-415.079 L 113.588,-415.205 L 113.81,-415.31 L 114.041,-415.392 L 114.279,-415.452
 L 114.522,-415.488 L 114.767,-415.5 L 115.012,-415.488 L 115.254,-415.452 L 115.492,-415.392 L 115.723,-415.31
 L 115.945,-415.205 L 116.156,-415.079 L 116.353,-414.933 L 116.534,-414.768 L 116.699,-414.586 L 116.845,-414.389
 L 116.971,-414.178 L 117.076,-413.957 L 117.159,-413.726 L 117.219,-413.488 L 117.255,-413.245 L 117.267,-413
 L 117.255,-412.755 L 117.219,-412.512 L 117.159,-412.274 L 117.076,-412.043 L 116.971,-411.822 L 116.845,-411.611
 L 116.699,-411.414 L 116.534,-411.232 L 116.353,-411.067 L 116.156,-410.921 L 115.945,-410.795 L 115.723,-410.69
 L 115.492,-410.608 L 115.254,-410.548 L 115.012,-410.512 L 114.767,-410.5 z
M 114.522,-390.512 L 114.279,-390.548 L 114.041,-390.608 L 113.81,-390.69 L 113.588,-390.795 L 113.378,-390.921
 L 113.181,-391.067 L 112.999,-391.232 L 112.834,-391.414 L 112.688,-391.611 L 112.562,-391.822 L 112.457,-392.043
 L 112.374,-392.274 L 112.315,-392.512 L 112.279,-392.755 L 112.267,-393 L 112.279,-393.245 L 112.315,-393.488
 L 112.374,-393.726 L 112.457,-393.957 L 112.562,-394.178 L 112.688,-394.389 L 112.834,-394.586 L 112.999,-394.768
 L 113.181,-394.933 L 113.378,-395.079 L 113.588,-395.205 L 113.81,-395.31 L 114.041,-395.392 L 114.279,-395.452
 L 114.522,-395.488 L 114.767,-395.5 L 115.012,-395.488 L 115.254,-395.452 L 115.492,-395.392 L 115.723,-395.31
 L 115.945,-395.205 L 116.156,-395.079 L 116.353,-394.933 L 116.534,-394.768 L 116.699,-394.586 L 116.845,-394.389
 L 116.971,-394.178 L 117.076,-393.957 L 117.159,-393.726 L 117.219,-393.488 L 117.255,-393.245 L 117.267,-393
 L 117.255,-392.755 L 117.219,-392.512 L 117.159,-392.274 L 117.076,-392.043 L 116.971,-391.822 L 116.845,-391.611
 L 116.699,-391.414 L 116.534,-391.232 L 116.353,-391.067 L 116.156,-390.921 L 115.945,-390.795 L 115.723,-390.69
 L 115.492,-390.608 L 115.254,-390.548 L 115.012,-390.512 L 114.767,-390.5 z
M 113.31,-382.95 L 113.31,-387.27 L 128.67,-387.27 L 128.67,-382.95 z
M 114.522,-370.512 L 114.279,-370.548 L 114.041,-370.608 L 113.81,-370.69 L 113.588,-370.795 L 113.378,-370.921
 L 113.181,-371.067 L 112.999,-371.232 L 112.834,-371.414 L 112.688,-371.611 L 112.562,-371.822 L 112.457,-372.043
 L 112.374,-372.274 L 112.315,-372.512 L 112.279,-372.755 L 112.267,-373 L 112.279,-373.245 L 112.315,-373.488
 L 112.374,-373.726 L 112.457,-373.957 L 112.562,-374.178 L 112.688,-374.389 L 112.834,-374.586 L 112.999,-374.768
 L 113.181,-374.933 L 113.378,-375.079 L 113.588,-375.205 L 113.81,-375.31 L 114.041,-375.392 L 114.279,-375.452
 L 114.522,-375.488 L 114.767,-375.5 L 115.012,-375.488 L 115.254,-375.452 L 115.492,-375.392 L 115.723,-375.31
 L 115.945,-375.205 L 116.156,-375.079 L 116.353,-374.933 L 116.534,-374.768 L 116.699,-374.586 L 116.845,-374.389
 L 116.971,-374.178 L 117.076,-373.957 L 117.159,-373.726 L 117.219,-373.488 L 117.255,-373.245 L 117.267,-373
 L 117.255,-372.755 L 117.219,-372.512 L 117.159,-372.274 L 117.076,-372.043 L 116.971,-371.822 L 116.845,-371.611
 L 116.699,-371.414 L 116.534,-371.232 L 116.353,-371.067 L 116.156,-370.921 L 115.945,-370.795 L 115.723,-370.69
 L 115.492,-370.608 L 115.254,-370.548 L 115.012,-370.512 L 114.767,-370.5 z
M 114.522,-350.512 L 114.279,-350.548 L 114.041,-350.608 L 113.81,-350.69 L 113.588,-350.795 L 113.378,-350.921
 L 113.181,-351.067 L 112.999,-351.232 L 112.834,-351.414 L 112.688,-351.611 L 112.562,-351.822 L 112.457,-352.043
 L 112.374,-352.274 L 112.315,-352.512 L 112.279,-352.755 L 112.267,-353 L 112.279,-353.245 L 112.315,-353.488
 L 112.374,-353.726 L 112.457,-353.957 L 112.562,-354.178 L 112.688,-354.389 L 112.834,-354.586 L 112.999,-354.768
 L 113.181,-354.933 L 113.378,-355.079 L 113.588,-355.205 L 113.81,-355.31 L 114.041,-355.392 L 114.279,-355.452
 L 114.522,-355.488 L 114.767,-355.5 L 115.012,-355.488 L 115.254,-355.452 L 115.492,-355.392 L 115.723,-355.31
 L 115.945,-355.205 L 116.156,-355.079 L 116.353,-354.933 L 116.534,-354.768 L 116.699,-354.586 L 116.845,-354.389
 L 116.971,-354.178 L 117.076,-353.957 L 117.159,-353.726 L 117.219,-353.488 L 117.255,-353.245 L 117.267,-353
 L 117.255,-352.755 L 117.219,-352.512 L 117.159,-352.274 L 117.076,-352.043 L 116.971,-351.822 L 116.845,-351.611
 L 116.699,-351.414 L 116.534,-351.232 L 116.353,-351.067 L 116.156,-350.921 L 115.945,-350.795 L 115.723,-350.69
 L 115.492,-350.608 L 115.254,-350.548 L 115.012,-350.512 L 114.767,-350.5 z
M 114.522,-330.512 L 114.279,-330.548 L 114.041,-330.608 L 113.81,-330.69 L 113.588,-330.795 L 113.378,-330.921
 L 113.181,-331.067 L 112.999,-331.232 L 112.834,-331.414 L 112.688,-331.611 L 112.562,-331.822 L 112.457,-332.043
 L 112.374,-332.274 L 112.315,-332.512 L 112.279,-332.755 L 112.267,-333 L 112.279,-333.245 L 112.315,-333.488
 L 112.374,-333.726 L 112.457,-333.957 L 112.562,-334.178 L 112.688,-334.389 L 112.834,-334.586 L 112.999,-334.768
 L 113.181,-334.933 L 113.378,-335.079 L 113.588,-335.205 L 113.81,-335.31 L 114.041,-335.392 L 114.279,-335.452
 L 114.522,-335.488 L 114.767,-335.5 L 115.012,-335.488 L 115.254,-335.452 L 115.492,-335.392 L 115.723,-335.31
 L 115.945,-335.205 L 116.156,-335.079 L 116.353,-334.933 L 116.534,-334.768 L 116.699,-334.586 L 116.845,-334.389
 L 116.971,-334.178 L 117.076,-333.957 L 117.159,-333.726 L 117.219,-333.488 L 117.255,-333.245 L 117.267,-333
 L 117.255,-332.755 L 117.219,-332.512 L 117.159,-332.274 L 117.076,-332.043 L 116.971,-331.822 L 116.845,-331.611
 L 116.699,-331.414 L 116.534,-331.232 L 116.353,-331.067 L 116.156,-330.921 L 115.945,-330.795 L 115.723,-330.69
 L 115.492,-330.608 L 115.254,-330.548 L 115.012,-330.512 L 114.767,-330.5 z
M 114.522,-310.512 L 114.279,-310.548 L 114.041,-310.608 L 113.81,-310.69 L 113.588,-310.795 L 113.378,-310.921
 L 113.181,-311.067 L 112.999,-311.232 L 112.834,-311.414 L 112.688,-311.611 L 112.562,-311.822 L 112.457,-312.043
 L 112.374,-312.274 L 112.315,-312.512 L 112.279,-312.755 L 112.267,-313 L 112.279,-313.245 L 112.315,-313.488
 L 112.374,-313.726 L 112.457,-313.957 L 112.562,-314.178 L 112.688,-314.389 L 112.834,-314.586 L 112.999,-314.768
 L 113.181,-314.933 L 113.378,-315.079 L 113.588,-315.205 L 113.81,-315.31 L 114.041,-315.392 L 114.279,-315.452
 L 114.522,-315.488 L 114.767,-315.5 L 115.012,-315.488 L 115.254,-315.452 L 115.492,-315.392 L 115.723,-315.31
 L 115.945,-315.205 L 116.156,-315.079 L 116.353,-314.933 L 116.534,-314.768 L 116.699,-314.586 L 116.845,-314.389
 L 116.971,-314.178 L 117.076,-313.957 L 117.159,-313.726 L 117.219,-313.488 L 117.255,-313.245 L 117.267,-313
 L 117.255,-312.755 L 117.219,-312.512 L 117.159,-312.274 L 117.076,-312.043 L 116.971,-311.822 L 116.845,-311.611
 L 116.699,-311.414 L 116.534,-311.232 L 116.353,-311.067 L 116.156,-310.921 L 115.945,-310.795 L 115.723,-310.69
 L 115.492,-310.608 L 115.254,-310.548 L 115.012,-310.512 L 114.767,-310.5 z
M 114.522,-290.512 L 114.279,-290.548 L 114.041,-290.608 L 113.81,-290.69 L 113.588,-290.795 L 113.378,-290.921
 L 113.181,-291.067 L 112.999,-291.232 L 112.834,-291.414 L 112.688,-291.611 L 112.562,-291.822 L 112.457,-292.043
 L 112.374,-292.274 L 112.315,-292.512 L 112.279,-292.755 L 112.267,-293 L 112.279,-293.245 L 112.315,-293.488
 L 112.374,-293.726 L 112.457,-293.957 L 112.562,-294.178 L 112.688,-294.389 L 112.834,-294.586 L 112.999,-294.768
 L 113.181,-294.933 L 113.378,-295.079 L 113.588,-295.205 L 113.81,-295.31 L 114.041,-295.392 L 114.279,-295.452
 L 114.522,-295.488 L 114.767,-295.5 L 115.012,-295.488 L 115.254,-295.452 L 115.492,-295.392 L 115.723,-295.31
 L 115.945,-295.205 L 116.156,-295.079 L 116.353,-294.933 L 116.534,-294.768 L 116.699,-294.586 L 116.845,-294.389
 L 116.971,-294.178 L 117.076,-293.957 L 117.159,-293.726 L 117.219,-293.488 L 117.255,-293.245 L 117.267,-293
 L 117.255,-292.755 L 117.219,-292.512 L 117.159,-292.274 L 117.076,-292.043 L 116.971,-291.822 L 116.845,-291.611
 L 116.699,-291.414 L 116.534,-291.232 L 116.353,-291.067 L 116.156,-290.921 L 115.945,-290.795 L 115.723,-290.69
 L 115.492,-290.608 L 115.254,-290.548 L 115.012,-290.512 L 114.767,-290.5 z
M 113.31,-277.95 L 113.31,-282.27 L 128.67,-282.27 L 128.67,-277.95 z
M 114.522,-270.512 L 114.279,-270.548 L 114.041,-270.608 L 113.81,-270.69 L 113.588,-270.795 L 113.378,-270.921
 L 113.181,-271.067 L 112.999,-271.232 L 112.834,-271.414 L 112.688,-271.611 L 112.562,-271.822 L 112.457,-272.043
 L 112.374,-272.274 L 112.315,-272.512 L 112.279,-272.755 L 112.267,-273 L 112.279,-273.245 L 112.315,-273.488
 L 112.374,-273.726 L 112.457,-273.957 L 112.562,-274.178 L 112.688,-274.389 L 112.834,-274.586 L 112.999,-274.768
 L 113.181,-274.933 L 113.378,-275.079 L 113.588,-275.205 L 113.81,-275.31 L 114.041,-275.392 L 114.279,-275.452
 L 114.522,-275.488 L 114.767,-275.5 L 115.012,-275.488 L 115.254,-275.452 L 115.492,-275.392 L 115.723,-275.31
 L 115.945,-275.205 L 116.156,-275.079 L 116.353,-274.933 L 116.534,-274.768 L 116.699,-274.586 L 116.845,-274.389
 L 116.971,-274.178 L 117.076,-273.957 L 117.159,-273.726 L 117.219,-273.488 L 117.255,-273.245 L 117.267,-273
 L 117.255,-272.755 L 117.219,-272.512 L 117.159,-272.274 L 117.076,-272.043 L 116.971,-271.822 L 116.845,-271.611
 L 116.699,-271.414 L 116.534,-271.232 L 116.353,-271.067 L 116.156,-270.921 L 115.945,-270.795 L 115.723,-270.69
 L 115.492,-270.608 L 115.254,-270.548 L 115.012,-270.512 L 114.767,-270.5 z
M 114.522,-250.512 L 114.279,-250.548 L 114.041,-250.608 L 113.81,-250.69 L 113.588,-250.795 L 113.378,-250.921
 L 113.181,-251.067 L 112.999,-251.232 L 112.834,-251.414 L 112.688,-251.611 L 112.562,-251.822 L 112.457,-252.043
 L 112.374,-252.274 L 112.315,-252.512 L 112.279,-252.755 L 112.267,-253 L 112.279,-253.245 L 112.315,-253.488
 L 112.374,-253.726 L 112.457,-253.957 L 112.562,-254.178 L 112.688,-254.389 L 112.834,-254.586 L 112.999,-254.768
 L 113.181,-254.933 L 113.378,-255.079 L 113.588,-255.205 L 113.81,-255.31 L 114.041,-255.392 L 114.279,-255.452
 L 114.522,-255.488 L 114.767,-255.5 L 115.012,-255.488 L 115.254,-255.452 L 115.492,-255.392 L 115.723,-255.31
 L 115.945,-255.205 L 116.156,-255.079 L 116.353,-254.933 L 116.534,-254.768 L 116.699,-254.586 L 116.845,-254.389
 L 116.971,-254.178 L 117.076,-253.957 L 117.159,-253.726 L 117.219,-253.488 L 117.255,-253.245 L 117.267,-253
 L 117.255,-252.755 L 117.219,-252.512 L 117.159,-252.274 L 117.076,-252.043 L 116.971,-251.822 L 116.845,-251.611
 L 116.699,-251.414 L 116.534,-251.232 L 116.353,-251.067 L 116.156,-250.921 L 115.945,-250.795 L 115.723,-250.69
 L 115.492,-250.608 L 115.254,-250.548 L 115.012,-250.512 L 114.767,-250.5 z
M 114.522,-230.512 L 114.279,-230.548 L 114.041,-230.608 L 113.81,-230.69 L 113.588,-230.795 L 113.378,-230.921
 L 113.181,-231.067 L 112.999,-231.232 L 112.834,-231.414 L 112.688,-231.611 L 112.562,-231.822 L 112.457,-232.043
 L 112.374,-232.274 L 112.315,-232.512 L 112.279,-232.755 L 112.267,-233 L 112.279,-233.245 L 112.315,-233.488
 L 112.374,-233.726 L 112.457,-233.957 L 112.562,-234.178 L 112.688,-234.389 L 112.834,-234.586 L 112.999,-234.768
 L 113.181,-234.933 L 113.378,-235.079 L 113.588,-235.205 L 113.81,-235.31 L 114.041,-235.392 L 114.279,-235.452
 L 114.522,-235.488 L 114.767,-235.5 L 115.012,-235.488 L 115.254,-235.452 L 115.492,-235.392 L 115.723,-235.31
 L 115.945,-235.205 L 116.156,-235.079 L 116.353,-234.933 L 116.534,-234.768 L 116.699,-234.586 L 116.845,-234.389
 L 116.971,-234.178 L 117.076,-233.957 L 117.159,-233.726 L 117.219,-233.488 L 117.255,-233.245 L 117.267,-233
 L 117.255,-232.755 L 117.219,-232.512 L 117.159,-232.274 L 117.076,-232.043 L 116.971,-231.822 L 116.845,-231.611
 L 116.699,-231.414 L 116.534,-231.232 L 116.353,-231.067 L 116.156,-230.921 L 115.945,-230.795 L 115.723,-230.69
 L 115.492,-230.608 L 115.254,-230.548 L 115.012,-230.512 L 114.767,-230.5 z
M 114.522,-210.512 L 114.279,-210.548 L 114.041,-210.608 L 113.81,-210.69 L 113.588,-210.795 L 113.378,-210.921
 L 113.181,-211.067 L 112.999,-211.232 L 112.834,-211.414 L 112.688,-211.611 L 112.562,-211.822 L 112.457,-212.043
 L 112.374,-212.274 L 112.315,-212.512 L 112.279,-212.755 L 112.267,-213 L 112.279,-213.245 L 112.315,-213.488
 L 112.374,-213.726 L 112.457,-213.957 L 112.562,-214.178 L 112.688,-214.389 L 112.834,-214.586 L 112.999,-214.768
 L 113.181,-214.933 L 113.378,-215.079 L 113.588,-215.205 L 113.81,-215.31 L 114.041,-215.392 L 114.279,-215.452
 L 114.522,-215.488 L 114.767,-215.5 L 115.012,-215.488 L 115.254,-215.452 L 115.492,-215.392 L 115.723,-215.31
 L 115.945,-215.205 L 116.156,-215.079 L 116.353,-214.933 L 116.534,-214.768 L 116.699,-214.586 L 116.845,-214.389
 L 116.971,-214.178 L 117.076,-213.957 L 117.159,-213.726 L 117.219,-213.488 L 117.255,-213.245 L 117.267,-213
 L 117.255,-212.755 L 117.219,-212.512 L 117.159,-212.274 L 117.076,-212.043 L 116.971,-211.822 L 116.845,-211.611
 L 116.699,-211.414 L 116.534,-211.232 L 116.353,-211.067 L 116.156,-210.921 L 115.945,-210.795 L 115.723,-210.69
 L 115.492,-210.608 L 115.254,-210.548 L 115.012,-210.512 L 114.767,-210.5 z
M 114.522,-190.512 L 114.279,-190.548 L 114.041,-190.608 L 113.81,-190.69 L 113.588,-190.795 L 113.378,-190.921
 L 113.181,-191.067 L 112.999,-191.232 L 112.834,-191.414 L 112.688,-191.611 L 112.562,-191.822 L 112.457,-192.043
 L 112.374,-192.274 L 112.315,-192.512 L 112.279,-192.755 L 112.267,-193 L 112.279,-193.245 L 112.315,-193.488
 L 112.374,-193.726 L 112.457,-193.957 L 112.562,-194.178 L 112.688,-194.389 L 112.834,-194.586 L 112.999,-194.768
 L 113.181,-194.933 L 113.378,-195.079 L 113.588,-195.205 L 113.81,-195.31 L 114.041,-195.392 L 114.279,-195.452
 L 114.522,-195.488 L 114.767,-195.5 L 115.012,-195.488 L 115.254,-195.452 L 115.492,-195.392 L 115.723,-195.31
 L 115.945,-195.205 L 116.156,-195.079 L 116.353,-194.933 L 116.534,-194.768 L 116.699,-194.586 L 116.845,-194.389
 L 116.971,-194.178 L 117.076,-193.957 L 117.159,-193.726 L 117.219,-193.488 L 117.255,-193.245 L 117.267,-193
 L 117.255,-192.755 L 117.219,-192.512 L 117.159,-192.274 L 117.076,-192.043 L 116.971,-191.822 L 116.845,-191.611
 L 116.699,-191.414 L 116.534,-191.232 L 116.353,-191.067 L 116.156,-190.921 L 115.945,-190.795 L 115.723,-190.69
 L 115.492,-190.608 L 115.254,-190.548 L 115.012,-190.512 L 114.767,-190.5 z
M 113.31,-172.95 L 113.31,-177.27 L 128.67,-177.27 L 128.67,-172.95 z
M 290.73,-189.05 L 295,-189.05 L 295,-209.95 L 290.73,-209.95 L 290.73,-231.05 L 295,-231.05
 L 295,-251.95 L 290.73,-251.95 L 290.73,-273.05 L 295,-273.05 L 295,-293.95 L 290.73,-293.95
 L 290.73,-315.05 L 295,-315.05 L 295,-335.95 L 290.73,-335.95 L 290.73,-357.05 L 295,-357.05
 L 295,-377.95 L 290.73,-377.95 L 290.73,-399.05 L 295,-399.05 L 295,-419.95 L 290.73,-419.95
 L 290.73,-441.05 L 295,-441.05 L 295,-461.95 L 290.73,-461.95 L 290.73,-483.05 L 295,-483.05
 L 295,-503.95 L 290.73,-503.95 L 290.73,-525.05 L 295,-525.05 L 295,-545.95 L 290.73,-545.95
 L 290.73,-567.05 L 295,-567.05 L 295,-587.95 L 290.73,-587.95 L 290.73,-588 L 248,-588
 L 248,-558.3 L 247.969,-558.3 L 247.604,-554.4 L 246.293,-550.2 L 244.147,-546 L 241.301,-541.8
 L 237.933,-537.6 L 234.255,-533.4 L 230.498,-529.2 L 226.899,-525 L 223.683,-520.8 L 221.052,-516.6
 L 219.172,-512.4 L 218.161,-508.2 L 218.082,-504 L 218.941,-499.8 L 220.683,-495.6 L 223.199,-491.4
 L 226.33,-487.2 L 229.881,-483 L 233.628,-478.8 L 237.335,-474.6 L 240.77,-470.4 L 243.717,-466.2
 L 245.99,-462 L 247.447,-457.8 L 247.997,-453.6 L 247.604,-449.4 L 246.293,-445.2 L 244.147,-441
 L 241.301,-436.8 L 237.933,-432.6 L 234.255,-428.4 L 230.498,-424.2 L 226.899,-420 L 223.683,-415.8
 L 221.052,-411.6 L 219.172,-407.4 L 218.161,-403.2 L 218.082,-399 L 218.941,-394.8 L 220.683,-390.6
 L 223.199,-386.4 L 226.33,-382.2 L 229.881,-378 L 233.628,-373.8 L 237.335,-369.6 L 240.77,-365.4
 L 243.717,-361.2 L 245.99,-357 L 247.447,-352.8 L 247.997,-348.6 L 247.604,-344.4 L 246.293,-340.2
 L 244.147,-336 L 241.301,-331.8 L 237.933,-327.6 L 234.255,-323.4 L 230.498,-319.2 L 226.899,-315
 L 223.683,-310.8 L 221.052,-306.6 L 219.172,-302.4 L 218.161,-298.2 L 218.082,-294 L 218.941,-289.8
 L 220.683,-285.6 L 223.199,-281.4 L 226.33,-277.2 L 229.881,-273 L 233.628,-268.8 L 237.335,-264.6
 L 240.77,-260.4 L 243.717,-256.2 L 245.99,-252 L 247.447,-247.8 L 247.997,-243.6 L 247.604,-239.4
 L 246.293,-235.2 L 244.147,-231 L 241.301,-226.8 L 237.933,-222.6 L 234.255,-218.4 L 230.498,-214.2
 L 226.899,-210 L 223.683,-205.8 L 221.052,-201.6 L 219.172,-197.4 L 218.161,-193.2 L 218.082,-189
 L 218.941,-184.8 L 220.683,-180.6 L 223.199,-176.4 L 226.33,-172.2 L 229.881,-168 L 290.73,-168
 z
M 227.56,-499.22 L 227.56,-511.22 L 231.78,-511.22 L 231.78,-499.22 z
M 252.95,-487.95 L 252.95,-492.27 L 262.495,-492.27 L 262.495,-487.95 z
M 271.84,-487.95 L 271.84,-492.27 L 281.385,-492.27 L 281.385,-487.95 z
M 227.56,-394.22 L 227.56,-406.22 L 231.78,-406.22 L 231.78,-394.22 z
M 252.95,-382.95 L 252.95,-387.27 L 262.495,-387.27 L 262.495,-382.95 z
M 271.84,-382.95 L 271.84,-387.27 L 281.385,-387.27 L 281.385,-382.95 z
M 227.56,-289.22 L 227.56,-301.22 L 231.78,-301.22 L 231.78,-289.22 z
M 252.95,-277.95 L 252.95,-282.27 L 262.495,-282.27 L 262.495,-277.95 z
M 271.84,-277.95 L 271.84,-282.27 L 281.385,-282.27 L 281.385,-277.95 z
M 227.56,-184.22 L 227.56,-196.22 L 231.78,-196.22 L 231.78,-184.22 z
M 252.95,-172.95 L 252.95,-177.27 L 262.495,-177.27 L 262.495,-172.95 z
M 271.84,-172.95 L 271.84,-177.27 L 281.385,-177.27 L 281.385,-172.95 z
M 36,-463 L 24.05,-463 L 24.05,-168 L 36,-168 z
M 48,-463 L 36.05,-463 L 36.05,-168 L 48,-168 z
M 24,-463 L 12.05,-463 L 12.05,-168 L 24,-168 z
M 12,-463 L 0.0499878,-463 L 0.0499878,-168 L 12,-168 z
M 34.69,-130.27 L 50.05,-130.27 L 50.05,-126 L 244.95,-126 L 244.95,-130.27 L 260.31,-130.27
 L 260.31,-126 L 275.47,-126 L 275.47,-130.27 L 290.73,-130.27 L 290.73,-139.715 L 295,-139.715
 L 295,-149.06 L 290.73,-149.06 L 290.73,-158.605 L 295,-158.605 L 295,-167.95 L 0,-167.95
 L 0,-158.605 L 4.26997,-158.605 L 4.26997,-149.06 L 0,-149.06 L 0,-139.715 L 4.26997,-139.715
 L 4.26997,-130.27 L 19.53,-130.27 L 19.53,-126 L 34.69,-126 z
M 34.69,-88.27 L 50.05,-88.27 L 50.05,-84 L 244.95,-84 L 244.95,-88.27 L 260.31,-88.27
 L 260.31,-84 L 275.47,-84 L 275.47,-88.27 L 290.73,-88.27 L 290.73,-97.715 L 295,-97.715
 L 295,-107.06 L 290.73,-107.06 L 290.73,-116.605 L 295,-116.605 L 295,-125.95 L 0,-125.95
 L 0,-116.605 L 4.26997,-116.605 L 4.26997,-107.06 L 0,-107.06 L 0,-97.715 L 4.26997,-97.715
 L 4.26997,-88.27 L 19.53,-88.27 L 19.53,-84 L 34.69,-84 z
M 34.69,-46.27 L 50.05,-46.27 L 50.05,-42 L 244.95,-42 L 244.95,-46.27 L 260.31,-46.27
 L 260.31,-42 L 275.47,-42 L 275.47,-46.27 L 290.73,-46.27 L 290.73,-55.715 L 295,-55.715
 L 295,-65.06 L 290.73,-65.06 L 290.73,-74.605 L 295,-74.605 L 295,-83.95 L 0,-83.95
 L 0,-74.605 L 4.26997,-74.605 L 4.26997,-65.06 L 0,-65.06 L 0,-55.715 L 4.26997,-55.715
 L 4.26997,-46.27 L 19.53,-46.27 L 19.53,-42 L 34.69,-42 z
M 34.69,-4.26999 L 50.05,-4.26999 L 50.05,-0 L 244.95,-0 L 244.95,-4.26997 L 260.31,-4.26997
 L 260.31,-0 L 275.47,-0 L 275.47,-4.26997 L 290.73,-4.26997 L 290.73,-13.715 L 295,-13.715
 L 295,-23.06 L 290.73,-23.06 L 290.73,-32.605 L 295,-32.605 L 295,-41.95 L 0,-41.95
 L 0,-32.605 L 4.26997,-32.605 L 4.26997,-23.06 L 0,-23.06 L 0,-13.715 L 4.26997,-13.715
 L 4.26997,-4.26999 L 19.53,-4.26999 L 19.53,-0 L 34.69,-0 z
" stroke="black" fill="lightgray" stroke-width="0.5"/></svg>
